<svg xmlns="http://www.w3.org/2000/svg" width="1120" height="134" viewBox="0 0 1120 134">
    <g fill="none" fill-rule="evenodd">
        <path fill="#FFF" d="M942.962 117.195c1.062 0 1.922.792 1.922 1.77 0 .976-.86 1.768-1.922 1.768h-7.69c-1.061 0-1.922-.792-1.922-1.769 0-.977.861-1.769 1.922-1.769h7.69zM.505 1.907c0-.977.861-1.77 1.923-1.77 1.061 0 1.922.793 1.922 1.77V8.98c0 .977-.861 1.769-1.922 1.769-1.062 0-1.923-.792-1.923-1.77V1.908zm0 17.686c0-.977.861-1.77 1.923-1.77 1.061 0 1.922.793 1.922 1.77v7.074c0 .977-.861 1.769-1.922 1.769-1.062 0-1.923-.792-1.923-1.77v-7.073zm0 17.685c0-.977.861-1.77 1.923-1.77 1.061 0 1.922.793 1.922 1.77v7.074c0 .977-.861 1.769-1.922 1.769-1.062 0-1.923-.792-1.923-1.77v-7.073zm0 17.685c0-.977.861-1.769 1.923-1.769 1.061 0 1.922.792 1.922 1.769v7.074c0 .977-.861 1.769-1.922 1.769-1.062 0-1.923-.792-1.923-1.769v-7.074zM.591 72.75c-.062-.975.747-1.812 1.806-1.87 1.059-.057 1.97.688 2.032 1.662l.018.312.02.3.022.302.024.3.026.3.028.298.03.3.032.3.032.297.035.293.038.3.039.297.04.293.043.297.044.294.046.292.048.294.05.294.052.29.053.293.054.288.058.29.055.27c.197.96-.49 1.885-1.532 2.066-1.044.18-2.05-.451-2.246-1.41l-.058-.284-.062-.311-.059-.312-.057-.312-.055-.313-.053-.311-.051-.313-.05-.315-.047-.317L1 76.892l-.045-.317-.04-.316-.04-.315-.038-.32-.036-.32-.033-.317-.032-.318-.03-.322-.027-.32-.025-.32-.025-.323-.02-.322-.02-.311zM4.935 90.5c-.41-.901.053-1.938 1.032-2.314.98-.376 2.106.05 2.516.95l.078.175.12.262.122.262.123.26.124.261.126.257.127.258.13.259.13.253.132.255.136.258.134.252.135.25.14.252.14.252.14.25.143.249.143.246.146.248.148.248.147.243.149.243.15.242.154.244.085.132c.54.84.236 1.925-.678 2.422-.914.497-2.093.217-2.633-.623l-.094-.148-.164-.26-.162-.26-.161-.263-.16-.264-.156-.263-.156-.263-.155-.267-.153-.267-.152-.268-.148-.267-.148-.268-.148-.274-.144-.274-.141-.268-.143-.273-.142-.278-.136-.274-.138-.276-.135-.278-.135-.28-.13-.278-.13-.279-.13-.281-.078-.175zm10.649 15.356c-.723-.715-.68-1.835.097-2.5s1.994-.625 2.718.09l.084.084.202.197.205.2.207.198.204.194.208.194.21.195.208.19.21.191.213.19.213.187.216.189.215.185.215.183.217.183.22.183.22.18.221.18.22.177.223.176.224.175.227.174.226.174.225.169.232.173.15.11c.83.607.97 1.72.31 2.485-.66.765-1.87.892-2.702.285l-.171-.127-.244-.18-.247-.187-.244-.186-.241-.187-.241-.188-.241-.19-.242-.194-.238-.193-.237-.195-.234-.195-.235-.197-.235-.2-.232-.201-.23-.2-.229-.202-.229-.205-.227-.205-.228-.208-.223-.207-.223-.21-.224-.212-.22-.21-.219-.213-.22-.215-.084-.084zm16.005 10.794c-.963-.41-1.384-1.46-.939-2.348.444-.886 1.588-1.273 2.552-.864l.1.043.263.11.265.11.266.109.267.106.267.106.27.103.27.103.267.1.27.098.273.097.273.095.272.094.274.092.272.09.276.089.28.088.273.085.276.084.28.083.275.08.28.078.281.077.281.076.279.073.262.067c1.023.258 1.626 1.231 1.346 2.173-.28.942-1.34 1.496-2.363 1.239l-.283-.074-.309-.08-.304-.082-.303-.084-.304-.085-.305-.088-.3-.09-.303-.09-.302-.095-.296-.093-.299-.096-.3-.1-.298-.1-.297-.101-.294-.104-.295-.106-.294-.106-.296-.11-.292-.111-.29-.112-.29-.114-.29-.116-.288-.117-.29-.12-.286-.12-.1-.042zm19.392 4.08c-1.061-.007-1.915-.805-1.908-1.782.008-.977.875-1.763 1.936-1.756l.266.002.303.001h7.107c1.061 0 1.922.792 1.922 1.77 0 .976-.86 1.768-1.922 1.768h-7.107l-.331-.001-.266-.002zm19.238.003c-1.062 0-1.922-.792-1.922-1.769 0-.977.86-1.769 1.922-1.769h7.69c1.06 0 1.922.792 1.922 1.77 0 .976-.861 1.768-1.923 1.768h-7.69zm19.223 0c-1.061 0-1.922-.792-1.922-1.769 0-.977.86-1.769 1.922-1.769h7.69c1.061 0 1.922.792 1.922 1.77 0 .976-.86 1.768-1.922 1.768h-7.69zm19.224 0c-1.062 0-1.923-.792-1.923-1.769 0-.977.861-1.769 1.923-1.769h7.689c1.062 0 1.922.792 1.922 1.77 0 .976-.86 1.768-1.922 1.768h-7.69zm19.223 0c-1.061 0-1.922-.792-1.922-1.769 0-.977.86-1.769 1.922-1.769h7.69c1.061 0 1.922.792 1.922 1.77 0 .976-.86 1.768-1.923 1.768h-7.689zm19.224 0c-1.062 0-1.923-.792-1.923-1.769 0-.977.861-1.769 1.923-1.769h7.689c1.062 0 1.922.792 1.922 1.77 0 .976-.86 1.768-1.922 1.768h-7.69zm19.223 0c-1.062 0-1.922-.792-1.922-1.769 0-.977.86-1.769 1.922-1.769h7.69c1.06 0 1.922.792 1.922 1.77 0 .976-.861 1.768-1.922 1.768h-7.69zm19.223 0c-1.061 0-1.922-.792-1.922-1.769 0-.977.86-1.769 1.922-1.769h7.69c1.061 0 1.922.792 1.922 1.77 0 .976-.86 1.768-1.922 1.768h-7.69zm19.224 0c-1.062 0-1.923-.792-1.923-1.769 0-.977.861-1.769 1.923-1.769h7.69c1.06 0 1.921.792 1.921 1.77 0 .976-.86 1.768-1.922 1.768h-7.69zm19.223 0c-1.061 0-1.922-.792-1.922-1.769 0-.977.86-1.769 1.922-1.769h7.69c1.061 0 1.922.792 1.922 1.77 0 .976-.86 1.768-1.922 1.768h-7.69zm19.224 0c-1.062 0-1.923-.792-1.923-1.769 0-.977.861-1.769 1.923-1.769h7.69c1.06 0 1.922.792 1.922 1.77 0 .976-.861 1.768-1.923 1.768h-7.69zm19.223 0c-1.061 0-1.922-.792-1.922-1.769 0-.977.86-1.769 1.922-1.769h7.69c1.061 0 1.922.792 1.922 1.77 0 .976-.861 1.768-1.922 1.768h-7.69zm19.224 0c-1.062 0-1.923-.792-1.923-1.769 0-.977.861-1.769 1.923-1.769h7.689c1.061 0 1.922.792 1.922 1.77 0 .976-.86 1.768-1.922 1.768h-7.69zm19.223 0c-1.061 0-1.922-.792-1.922-1.769 0-.977.86-1.769 1.922-1.769h7.69c1.061 0 1.922.792 1.922 1.77 0 .976-.86 1.768-1.923 1.768h-7.69zm19.223 0c-1.061 0-1.922-.792-1.922-1.769 0-.977.86-1.769 1.922-1.769h7.69c1.061 0 1.922.792 1.922 1.77 0 .976-.86 1.768-1.922 1.768h-7.69zm19.224 0c-1.062 0-1.922-.792-1.922-1.769 0-.977.86-1.769 1.922-1.769h7.69c1.06 0 1.922.792 1.922 1.77 0 .976-.861 1.768-1.923 1.768h-7.689zm19.223 0c-1.061 0-1.922-.792-1.922-1.769 0-.977.86-1.769 1.922-1.769h7.69c1.061 0 1.922.792 1.922 1.77 0 .976-.86 1.768-1.922 1.768h-7.69zm19.224 0c-1.062 0-1.923-.792-1.923-1.769 0-.977.861-1.769 1.923-1.769h7.69c1.06 0 1.921.792 1.921 1.77 0 .976-.86 1.768-1.922 1.768h-7.69zm19.223 0c-1.061 0-1.922-.792-1.922-1.769 0-.977.86-1.769 1.922-1.769h7.69c1.061 0 1.922.792 1.922 1.77 0 .976-.86 1.768-1.922 1.768h-7.69zm19.224 0c-1.062 0-1.923-.792-1.923-1.769 0-.977.861-1.769 1.923-1.769h7.69c1.06 0 1.921.792 1.921 1.77 0 .976-.86 1.768-1.922 1.768h-7.69zm19.223 0c-1.061 0-1.922-.792-1.922-1.769 0-.977.86-1.769 1.922-1.769h7.69c1.06 0 1.922.792 1.922 1.77 0 .976-.861 1.768-1.922 1.768h-7.69zm19.223 0c-1.06 0-1.922-.792-1.922-1.769 0-.977.861-1.769 1.922-1.769h7.69c1.061 0 1.922.792 1.922 1.77 0 .976-.86 1.768-1.922 1.768h-7.69zm19.224 0c-1.062 0-1.923-.792-1.923-1.769 0-.977.861-1.769 1.923-1.769h7.69c1.06 0 1.922.792 1.922 1.77 0 .976-.861 1.768-1.923 1.768h-7.69zm19.223 0c-1.061 0-1.922-.792-1.922-1.769 0-.977.86-1.769 1.922-1.769h7.69c1.061 0 1.922.792 1.922 1.77 0 .976-.86 1.768-1.922 1.768h-7.69zm19.224 0c-1.062 0-1.922-.792-1.922-1.769 0-.977.86-1.769 1.922-1.769h7.69c1.06 0 1.922.792 1.922 1.77 0 .976-.861 1.768-1.923 1.768h-7.69zm19.223 0c-1.061 0-1.922-.792-1.922-1.769 0-.977.86-1.769 1.922-1.769h7.69c1.061 0 1.922.792 1.922 1.77 0 .976-.86 1.768-1.922 1.768h-7.69zm19.224 0c-1.062 0-1.923-.792-1.923-1.769 0-.977.861-1.769 1.923-1.769h7.689c1.062 0 1.922.792 1.922 1.77 0 .976-.86 1.768-1.922 1.768h-7.69zm19.223 0c-1.061 0-1.922-.792-1.922-1.769 0-.977.86-1.769 1.922-1.769h7.69c1.061 0 1.922.792 1.922 1.77 0 .976-.86 1.768-1.923 1.768h-7.689zm19.224 0c-1.062 0-1.923-.792-1.923-1.769 0-.977.86-1.769 1.923-1.769h7.689c1.061 0 1.922.792 1.922 1.77 0 .976-.86 1.768-1.922 1.768h-7.69zm19.223 0c-1.062 0-1.922-.792-1.922-1.769 0-.977.86-1.769 1.922-1.769h7.69c1.06 0 1.922.792 1.922 1.77 0 .976-.861 1.768-1.923 1.768h-7.689zm19.223 0c-1.061 0-1.922-.792-1.922-1.769 0-.977.86-1.769 1.922-1.769h7.69c1.061 0 1.922.792 1.922 1.77 0 .976-.86 1.768-1.922 1.768h-7.69zm19.224 0c-1.062 0-1.923-.792-1.923-1.769 0-.977.861-1.769 1.923-1.769h7.69c1.06 0 1.921.792 1.921 1.77 0 .976-.86 1.768-1.922 1.768h-7.69zm19.223 0c-1.061 0-1.922-.792-1.922-1.769 0-.977.86-1.769 1.922-1.769h7.69c1.061 0 1.922.792 1.922 1.77 0 .976-.86 1.768-1.922 1.768h-7.69zm19.224 0c-1.062 0-1.923-.792-1.923-1.769 0-.977.861-1.769 1.923-1.769h7.69c1.06 0 1.922.792 1.922 1.77 0 .976-.861 1.768-1.923 1.768h-7.69zm19.223 0c-1.061 0-1.922-.792-1.922-1.769 0-.977.86-1.769 1.922-1.769h7.69c1.06 0 1.922.792 1.922 1.77 0 .976-.861 1.768-1.922 1.768h-7.69zm19.223 0c-1.06 0-1.922-.792-1.922-1.769 0-.977.861-1.769 1.922-1.769h7.69c1.061 0 1.922.792 1.922 1.77 0 .976-.86 1.768-1.922 1.768h-7.69zm19.224 0c-1.062 0-1.922-.792-1.922-1.769 0-.977.86-1.769 1.922-1.769h7.69c1.061 0 1.922.792 1.922 1.77 0 .976-.861 1.768-1.923 1.768h-7.69zm19.223 0c-1.062 0-1.923-.792-1.923-1.769 0-.977.861-1.769 1.923-1.769h7.689c1.062 0 1.922.792 1.922 1.77 0 .976-.86 1.768-1.922 1.768h-7.69zm19.223 0c-1.062 0-1.922-.792-1.922-1.769 0-.977.86-1.769 1.922-1.769h7.69c1.061 0 1.922.792 1.922 1.77 0 .976-.861 1.768-1.923 1.768h-7.689zm19.224 0c-1.062 0-1.923-.792-1.923-1.769 0-.977.86-1.769 1.923-1.769h7.689c1.061 0 1.922.792 1.922 1.77 0 .976-.86 1.768-1.922 1.768h-7.69zm19.223 0c-1.062 0-1.922-.792-1.922-1.769 0-.977.86-1.769 1.922-1.769h7.69c1.06 0 1.922.792 1.922 1.77 0 .976-.861 1.768-1.923 1.768h-7.69zm19.223 0c-1.061 0-1.922-.792-1.922-1.769 0-.977.86-1.769 1.922-1.769h7.69c1.061 0 1.922.792 1.922 1.77 0 .976-.86 1.768-1.922 1.768h-7.69zm19.224 0c-1.062 0-1.923-.792-1.923-1.769 0-.977.861-1.769 1.923-1.769h7.69c1.06 0 1.922.792 1.922 1.77 0 .976-.861 1.768-1.923 1.768h-7.69zm19.223 0c-1.061 0-1.922-.792-1.922-1.769 0-.977.86-1.769 1.922-1.769h7.69c1.061 0 1.922.792 1.922 1.77 0 .976-.861 1.768-1.922 1.768h-7.69zm19.224 0c-1.062 0-1.923-.792-1.923-1.769 0-.977.861-1.769 1.923-1.769h7.689c1.061 0 1.922.792 1.922 1.77 0 .976-.86 1.768-1.922 1.768h-7.69zm19.223 0c-1.061 0-1.922-.792-1.922-1.769 0-.977.86-1.769 1.922-1.769h7.69c1.06 0 1.922.792 1.922 1.77 0 .976-.861 1.768-1.923 1.768h-7.689zM1117.592 117.042c.977 0 1.77.86 1.77 1.922 0 1.061-.793 1.923-1.77 1.923h-7.073c-.978 0-1.77-.862-1.77-1.923s.792-1.922 1.77-1.922h7.073zm-95.5 3.845c-.977 0-1.77-.862-1.77-1.923s.793-1.922 1.77-1.922h7.074c.977 0 1.77.86 1.77 1.922 0 1.061-.793 1.923-1.77 1.923h-7.074zm17.686 0c-.977 0-1.769-.862-1.769-1.923s.792-1.922 1.77-1.922h7.073c.977 0 1.77.86 1.77 1.922 0 1.061-.793 1.923-1.77 1.923h-7.074zm17.685 0c-.977 0-1.769-.862-1.769-1.923s.792-1.922 1.77-1.922h7.073c.977 0 1.77.86 1.77 1.922 0 1.061-.793 1.923-1.77 1.923h-7.074zm17.685 0c-.977 0-1.769-.862-1.769-1.923s.792-1.922 1.77-1.922h7.073c.977 0 1.77.86 1.77 1.922 0 1.061-.793 1.923-1.77 1.923h-7.074zm17.685 0c-.977 0-1.769-.862-1.769-1.923s.792-1.922 1.77-1.922h7.073c.977 0 1.77.86 1.77 1.922 0 1.061-.793 1.923-1.77 1.923h-7.074zM963.367 133.793l14.044-14.044-14.044-14.043z"/>
        <path stroke="#FFF" stroke-width=".216" d="M963.367 133.793l14.044-14.044-14.044-14.043z"/>
        <path fill="#FFF" d="M985.31 133.793l14.043-14.044-14.044-14.043z"/>
        <path stroke="#FFF" stroke-width=".216" d="M985.31 133.793l14.043-14.044-14.044-14.043z"/>
    </g>
</svg>
