<svg xmlns="http://www.w3.org/2000/svg" width="21" height="112" viewBox="0 0 21 112">
    <g fill="#FFF" fill-rule="evenodd">
        <path d="M9 2.107C9 .944 9.858 0 10.917 0c1.058 0 1.916.944 1.916 2.107v8.426c0 1.162-.858 2.106-1.916 2.106C9.858 12.64 9 11.695 9 10.533V2.107zm3.833 71.621c0 1.163-.858 2.107-1.916 2.107C9.858 75.835 9 74.89 9 73.728v-8.426c0-1.163.858-2.107 1.917-2.107 1.058 0 1.916.944 1.916 2.107v8.426zm0-21.065c0 1.162-.858 2.106-1.916 2.106C9.858 54.77 9 53.825 9 52.663v-8.427c0-1.162.858-2.106 1.917-2.106 1.058 0 1.916.944 1.916 2.106v8.427zm0-21.065c0 1.163-.858 2.107-1.916 2.107C9.858 33.705 9 32.76 9 31.598v-8.426c0-1.163.858-2.107 1.917-2.107 1.058 0 1.916.944 1.916 2.107v8.426zM21.067 101l-10.533 10.534L0 101zM21.067 84L10.534 94.534 0 84z"/>
    </g>
</svg>
