<svg xmlns="http://www.w3.org/2000/svg" width="88" height="90" viewBox="0 0 88 90">
    <path fill="#FFF" fill-rule="evenodd" d="M76.017 86.048h-1.098c-4.148 0-8.123-3.975-8.123-8.123v-1.098c0-4.148 3.975-8.123 8.123-8.123h1.098c5.933 0 9.879 6.953 7.396 12.226-1.332 2.827-4.058 5.118-7.396 5.118zm-31.395 0c-2.78 0-4.751-.523-6.65-2.352-3.46-3.335-3.45-9.188-.11-12.531 7.48-7.485 20.232 2.978 12.567 12.128-1.094 1.306-3.513 2.755-5.807 2.755zM3.567 77.266c0-4.414 3.908-8.562 7.684-8.562 2.157 0 3.145-.176 5.085.842.413.216.845.467 1.218.758 7.1 5.55 2.663 15.744-5.205 15.744-2.53 0-4.903-1.262-6.212-2.57-1.275-1.276-2.57-3.767-2.57-6.212zm41.055-47.422c-2.78 0-4.751-.523-6.65-2.352-4.845-4.669-3.09-14.992 6.65-14.992 2.337 0 4.348 1.312 5.58 2.543 3.714 3.715 3.313 9.64-.796 13-1.188.97-3.057 1.801-4.784 1.801zm-12.954-9.001c0 3.537 1.23 6.467 3.126 8.51 1.9 2.048 4.038 3.269 7.193 4.004v5.27c-.464-.224-2.294-.498-3.032-.7-6.547-1.794-12.336-8.846-12.336-15.328 0-4.522.34-7.843 3.228-11.7.496-.663 1.333-1.7 1.924-2.248C37.187 3.637 45.03 2.127 51.502 5.4c1.111.561 1.692.782 2.656 1.516 4.274 3.249 7.369 7.838 7.369 14.366 0 6.273-3.442 11.65-7.998 14.615-2.01 1.309-5.167 2.509-7.81 2.73v-5.27c2.905-.242 6.241-2.394 7.658-4.199 1.085-1.383 1.518-1.93 2.227-3.7 1.882-4.69.244-10.697-3.641-13.712-5.389-4.184-12.002-3.932-16.51.587-1.898 1.903-3.785 4.813-3.785 8.51zm-8.781-.44c0 3.641.438 6.388 1.828 9.37 1.017 2.18 2.319 4.198 3.932 5.947 2.487 2.697 8.29 6.419 13.34 6.419v5.27H12.349c-1.196 0-1.976.78-1.976 1.975V65.19c-1.656.037-4.322 1.352-5.542 2.362-.57.474-1.047.755-1.54 1.313-7.616 8.613-.807 20.695 8.179 20.695 4.127 0 6.594-.55 9.497-3.456 2.923-2.924 3.676-5.5 3.676-9.498 0-3.387-1.71-5.789-3.257-7.72-1.234-1.542-4.91-3.643-7.281-3.696v-14.05l27.882-.22v14.27c-6.136 1.43-10.319 5.815-10.319 12.514 0 8.279 10.392 16.998 20.672 8.816 1.546-1.23 2.854-3.574 3.508-5.493 1.765-5.174-.915-11.75-5.589-14.23-1.204-.637-2.965-1.476-4.54-1.607v-14.27h27.883v14.27c-1.55.361-2.793.69-4.103 1.386-6.755 3.584-8.888 13.414-2.87 19.418 10.73 10.707 28.443-3.384 18.079-16.761-1.761-2.273-4.596-3.396-7.374-4.043l.003-14.493c.01-1.086-.03-3.29-1.54-3.29H45.72V42.14c3.177 0 5.851-1.176 8.051-2.268 2.646-1.314 3.88-2.533 5.84-4.48 1.452-1.444 3.186-4.2 4.023-6.294.75-1.877 1.884-6.263 1.505-8.782-.12-.793-.059-1.463-.183-2.242-.353-2.213-.917-4.078-1.89-6.013C56.735-.525 41.136-3.78 30.739 4.765c-.533.438-.945.718-1.436 1.198-1.79 1.756-3.155 3.753-4.296 6.023-1.04 2.07-2.12 5.423-2.12 8.417z"/>
</svg>
