<svg xmlns="http://www.w3.org/2000/svg" width="108" height="88" viewBox="0 0 108 88">
    <path fill="#6A6BB1" fill-rule="evenodd" d="M74.87 79.385c-3.605.564-6.821.414-10.147-.174l-2.118-.475c-3.081-.845-5.243-1.79-7.878-3.395l-3.148-2.221c-.19-.158-.341-.23-.531-.396-3.765-3.288-5.9-6.217-8.106-10.858-2.467-5.19-3.008-12.149-1.95-17.633.351-1.822.826-3.523 1.518-5.22.984-2.41 1.144-2.556 2.275-4.587.128-.231.2-.288.328-.5 1.05-1.723 2.194-3.106 3.552-4.559.322-.344.55-.578.888-.914 1.627-1.623 4.418-3.692 6.451-4.744 4.785-2.475 8.434-3.37 13.878-3.616.596-.026 1.046.02 1.543.026 4.228.051 9.674 1.571 13.312 3.72 1.31.773 3.198 1.966 4.355 2.93l1.01.868c4.5 4.236 7.132 8.264 8.862 14.213.655 2.253 1.054 4.458 1.098 6.85.1 5.223-.537 8.369-2.395 12.963-.43 1.062-1.253 2.656-1.84 3.589l-1.46 2.221c-1.965 2.693-4.74 5.491-7.781 7.392-3.728 2.331-7.157 3.807-11.716 4.52zm-1.98-35.139c1.487.11 2.285 1.23 3.005 2.191l5.426-7.382c-.173-.35-.447-.452-.72-.648-.43-.313-2.025-1.6-2.418-1.641-.348.32-4.037 5.478-4.722 6.416-.235.322-.605.585-.571 1.064zm-12.015-34.9l.638 4.081c.458 2.93 6.374 1.863 5.952-.835l-.653-4.175c-.034-.214-.109-.268-.322-.234l-5.38.841c-.214.034-.269.108-.235.322zm8.302 37.286c.06.389-.172.176-.954.783-3.04 2.362-.918 7.398 2.994 6.786 3.246-.507 4.391-4.763 1.87-6.733-1.528-1.194-2.156-.557-2.24-1.097l-3.163-20.223-1.67.261 3.163 20.223zM54.624 4.622l.32 2.04a2.231 2.231 0 0 0 2.573 1.879l12.895-2.017c1.099-.172 1.972-1.37 1.8-2.468-.223-1.426-.223-2.84-1.157-3.595-.314-.254-1.026-.53-1.566-.445l-13.173 2.06c-1.044.163-1.891 1.275-1.692 2.545zm-34.355 79.31c.24 1.532 1.752 2.577 3.033 2.378l16.884-2.641c2.27-.355 3.121-3.845.756-5.092-.711-.375-1.291-.431-2.354-.265l-15.4 2.408c-1.373.215-2.334.75-2.774 1.92-.097.26-.194.974-.145 1.293zm-8.385-53.62a2.812 2.812 0 0 0 3.218 2.349l16.327-2.554c.877-.137 1.551-.53 1.954-1.04 1.255-1.582.376-3.998-1.51-4.412a3.737 3.737 0 0 0-1.3-.021l-16.141 2.525c-1.74.272-2.77 1.737-2.548 3.154zM8.02 72.449c.196 1.257 1.592 2.508 2.925 2.3l20.038-3.135c1.152-.18 2.22-1.608 2.035-2.79-.143-.914-.265-1.468-1.107-2.088-.376-.277-1.156-.598-1.77-.502l-20.037 3.134c-1.333.208-2.28 1.824-2.084 3.081zM3.755 45.175c.216 1.386 1.694 2.586 3.31 2.333l19.11-2.99c1.664-.259 2.795-1.575 2.563-3.06-.13-.834-.437-1.592-1.155-2.023-.518-.312-1.17-.56-1.985-.433L6.209 42.035c-1.75.273-2.661 1.82-2.454 3.14zM.028 59.633c.146.938.43 1.35 1.054 1.822.527.4 1.188.678 1.886.569l23.378-3.656c1.568-.245 3.235-2.844 1.101-4.778-.385-.35-1.182-.722-1.85-.617L2.034 56.658C.779 56.854-.18 58.305.028 59.633zm33.112-4.608c1.394 8.91 4.628 15.023 10.133 20.92 1.796 1.924 4.125 3.723 6.288 5.238l1.418.871c3.565 2.245 8.578 4.082 12.712 4.77 1.191.198 2.42.413 3.681.473l3.944.114c1.42-.014 2.946-.268 4.377-.367l4.266-.906c4.153-1.262 7.517-2.553 11.111-5.043 3.564-2.468 4.37-3.255 7.515-6.6l2.084-2.588c1.034-1.56 2.143-3.244 2.961-4.908 2.132-4.334 3.517-8.51 3.95-13.39.419-4.72.19-6.321-.527-10.905a17.162 17.162 0 0 0-.41-1.916c-2-7.56-5.988-14.297-11.961-19.316-.234-.198-.291-.293-.552-.484-.264-.194-.396-.275-.625-.494-.9-.862-2.509-1.803-3.653-2.54-.437-.283-.873-.527-1.32-.782-2.664-1.52-5.621-2.692-8.633-3.486-.515-.135-1.086-.295-1.6-.398-2.07-.417-2.908-.55-5.045-.747a37.388 37.388 0 0 0-1.813-.106c-.27-.01-.578.011-.905.003-2.432-.067-.179.2-2.187 2.606-1.447 1.732-4.9 2.076-6.755 1.09-.67-.357-1.644-1.16-1.8-2.152-3.242.507-9.873 4.126-12.304 6.145l-4.059 3.614c-.199.224-.36.383-.553.583-1.104 1.154-1.542 1.832-2.465 2.885l-.904 1.231c-.177.279-.205.397-.416.684-1.08 1.467-2.25 3.744-3.006 5.368-.857 1.838-1.583 4.054-2.113 6.019-1.055 3.917-1.653 9.274-.834 14.514z"/>
</svg>
