<svg xmlns="http://www.w3.org/2000/svg" width="110" height="151" viewBox="0 0 110 151">
    <path fill="#FFF" fill-rule="evenodd" d="M0 129.214h40.498l2.576-.09 22.09.008 2.577.094 41.235-.012.08-62.826h.656H0v62.826zm61.829 4.747c-.585-.734-14.371-.371-15.318-.288-.486 1.682-.484 5.804-.001 7.487l13.525.102c.206-.004.874-.014 1.048-.05.818-.162.27.029.746-.341v-6.91zm-36.876 16.157h59.069V145.7H24.953v4.418zm.24-100.14v-22.09l-2.496.435C25.082 15.831 40.04 5.837 55.225 5.791c15.277-.047 30.763 10.067 33.012 22.528l-2.44-.517-.016 22.176c3.369-.314 5.977-1.33 5.995-5.503.043-10.437.944-20.561-5.302-29.064C80.846 7.747 69.334.68 55.594.56 42.37.447 29.59 7.93 24.546 15.254c-6.497 9.434-5.213 17.738-5.296 28.85-.033 4.436 1.63 5.453 5.943 5.874zm55.003 3.518c-4.23 1.787-6.21 4.294-13.665 5.157-1.637.19-3.212.01-4.688.147-2.106.195-1.355 1.134-3.602 1.023-1.062-.053-6.782-1.604-7.451-2.096-1.623-1.194-3.267-8.75 8.813-4.042 3.512 1.369-.809 3.228 6.85 2.311 5.331-.639 9.154-2.631 13.222-5.487 2.168-1.522 3.354-1.977 4.143-5.45 1.215-5.34.965-11.799-.835-16.57-3.234-8.566-10.37-15.447-19.92-18.02C35.45 3.025 14.201 36.183 34.4 58.653c.806.896 1.585 1.52 2.532 2.258 1.523 1.189 1.587.882 3.926.856l28.358-.007c4.49.024 4.52-.399 6.829-2.745 1.409-1.433 3.34-3.401 4.151-5.52zM44.98 87.54c-.477-.993-.649-2.87 1.02-1.955 1.049.576 1.046 1.905-1.02 1.955zm46.742 3.674c0-2.15-1.074-3.226-3.224-3.226H65.46v5.07h23.957c.956 0 2.303-1.35 2.303-1.844zm0-9.675c0-1.074-1.23-2.303-2.303-2.303H65.46v5.068h23.036c1.86 0 3.224-1.004 3.224-2.765zm0 26.508c0-2.15-1.074-3.226-3.224-3.226H65.46v5.07h23.957c.956 0 2.303-1.349 2.303-1.844zm0-9.676c0-1.074-1.23-2.303-2.303-2.303H65.46v5.068h23.036c1.86 0 3.224-1.004 3.224-2.765zm-71.16-12.673l-1.843 1.382v23.036h11.056V82.933c-1.779.04-3.356.562-4.907 1.082-1.834.614-2.682 1.304-4.306 1.683 1.931-2.884 2.085-3.511 5.938-4.719 2.656-.831 1.626-.077 3.633.728 2.179.874 2.561-.255 3.789-1.077.865.458 7.747 4.406 8.1 4.8 1.286 1.432.19.49.979 2.25 1.97 4.389 5.639-.624 5.639-.626l8.019-4.925c3.432-1.925 1.122.202 4.335-.187 1.963-.237 2.415-1.682 2.415-4.077-1.703-1.474-1.456-1.763-5.069-.92-.042.18-.45 1.842-.452 1.85-.446 1.022-.198.632-1.046 1.259l-9.099 5.183c-.628-2.353-1.581-1.502-3.494-1.231-1.583.223-8.942-4.358-10.04-5.505-.693-.725-2.38-3.93-5.44-.725-1.446 1.513-6.284 2.952-6.569 2.98-1.695.166-.03-.586-4.403-.586-2.075 3.099-2.114 5.528 2.765 5.528zm-2.304-2.304c.182-2.132-.462-.92.77-1.514.58-.28.785-.236 1.186.494.915 1.67-.962 1.498-1.956 1.02zm41.465-5.068h1.842v1.844h-1.842v-1.844zm-29.487 0h1.844v1.844h-1.844v-1.844zm3.226 31.79h11.057V92.61c0-1.204-1.641-1.53-4.944-4.733-1.306-1.265-4.257-3.589-6.113-4.021v26.261zm14.742-19.35v19.35c6.636 0 11.519 1.021 11.519-1.382 0-27.398 1.873-28.066-5.464-22.05-1.513 1.24-4.14 3.635-6.055 4.082z"/>
</svg>
