<svg xmlns="http://www.w3.org/2000/svg" width="130" height="97" viewBox="0 0 130 97">
    <path fill="#23A6B3" fill-rule="evenodd" d="M103.7 16.098c-3.57.665-6.64 3.999-5.74 8.49 1.83 9.123 16.061 6.508 14.056-2.927-.72-3.381-4-6.368-8.317-5.563zM0 60.853V63.8c.476.674.7 1.654 1.146 2.424 3.284 5.649 13.041 3.851 13.214-3.618.15-6.46-7.188-9.472-11.645-5.79C.838 58.364.158 60.83.101 60.706c-.015-.032-.063.1-.101.146zM23.341 16.15c-9.307 1.99-6.405 15.977 3.075 13.97 3.343-.708 6.364-4.307 5.372-8.643-.753-3.29-4.152-6.245-8.447-5.327zM63.48.14c-9.412 1.856-6.51 16.025 2.948 14.004 3.351-.717 6.255-4.085 5.432-8.483-.63-3.368-4.182-6.35-8.38-5.521zm66.298 63.79v-2.952c-.482-.67-.703-1.66-1.144-2.419-.372-.641-.926-1.248-1.559-1.762-1.161-.942-3.057-1.714-5.185-1.54-3.62.297-6.475 3.355-6.475 7.135 0 6.522 7.565 9.11 11.653 5.584 1.744-1.505 1.616-1.933 2.35-3.449l.36-.597zM16.896 65.301c.267.164 0 .167.712.261 1.701.223 18.2-.336 21.691.04.277 1.406.092 23.258.092 27.059l-.009 2.91c.093.819-.063.38.234.62l50.518-.043c.028-3.874-.257-29.269.135-30.753l22.612-.007-.333-3.888-22.315-.03c-.247-1.244-.18-17.234-.116-19.617.04-1.45.432-1.41 2.03-2.994.859-.852 1.551-1.546 2.386-2.384.856-.86 4.44-4.19 4.82-5.022l-2.746-2.406c-1.597 1.02-8.546 8.766-10.227 9.991l-19.516-.046.011-16.816c0-.968-.002-1.936 0-2.903.007-2.27.284-2.209-.535-2.412-1.025-.112-2.411-.232-3.249.081-.303.455-.085-.488-.25.665-.175 1.218.27 18.29-.06 21.61-3.04-.289-18.617.45-19.785-.336l-2.487-2.484c-1.577-1.509-6.577-6.864-7.603-7.391-.77.898-2.018 1.609-2.51 2.498.364 1.18 8.102 7.919 8.924 9.301L39.3 61.293c-1.943.273-15.544.07-19.604.066-.651 0-2.106-.282-2.517.275l-.282 3.667zm58.98 21.114c-4.924 0-19.218.21-23.107-.064-2.865-23.524 24.24-27.908 24.256-1.361-.004 1.301.216 1.425-1.149 1.425zM63.114 45.987c-12.09 2.492-8.354 20.535 3.768 17.965 4.343-.92 8.095-5.45 6.938-10.917-.924-4.364-5.423-8.137-10.706-7.048z"/>
</svg>
