<svg xmlns="http://www.w3.org/2000/svg" width="134" height="104" viewBox="0 0 134 104">
    <path fill="#FFF" fill-rule="evenodd" d="M101.792 78.713c.554-.047 1.798.666 2.343.86 2.77.978 6.565 2.726 9.443 3.782l7.153 2.89c-.083.173-.028.225-.441.466l-2.539 1.448c-2.952 1.742-2.643 1.884-.361 4.18.659.664 6.395 6.331 6.423 6.523.068.45-1.594 1.873-1.758 1.882-.363.018-2.834-2.633-3.314-3.127-1.319-1.357-2.173-2.132-3.261-3.25-.403-.415-1.179-1.279-1.626-1.573-1.452-.953-2.219 1.246-3.16 2.818l-1.197 2.075-.31-.23a1.103 1.103 0 0 1-.048-.059l-1.673-4.252c-.13-.325-.251-.763-.444-1.17-.194-.41-.307-.827-.502-1.228-.585-1.2-2.155-5.609-2.89-7.271-.231-.524-1.867-4.48-1.838-4.764zM1.773 0h130.071c.98 0 1.773.794 1.773 1.773v11.9c0 .98-.794 1.773-1.773 1.773H1.774A1.773 1.773 0 0 1 0 13.673v-11.9C0 .794.794 0 1.773 0zm128.298 3.546H3.546v8.355h126.525V3.546zM1.773 22.281h130.071c.98 0 1.773.795 1.773 1.774v11.9c0 .979-.794 1.773-1.773 1.773H1.774A1.773 1.773 0 0 1 0 35.955v-11.9c0-.98.794-1.774 1.773-1.774zm128.298 3.546H3.546v8.355h126.525v-8.355zM1.773 44.562h130.071c.98 0 1.773.794 1.773 1.773v11.9c0 .979-.794 1.773-1.773 1.773H1.774A1.773 1.773 0 0 1 0 58.235v-11.9c0-.98.794-1.773 1.773-1.773zm128.298 3.545H3.546v8.355h126.525v-8.355zM1.773 68.615H75.31v11.9H1.773v-11.9zm92.423.686c-.3-.692-1.495-.506-1.912-.095-.23.225-.379.51-.362.987.003.09.077.494.107.564.16.37.105.258.431.37l2.862 2.87c.432.27 1.375.27 1.74-.123 1.292-1.393-1.823-3.138-2.866-4.573zm2.35 14.551c.127-.178.16-.998.073-1.312-.132-.476-1.027-1.339-2.337-.035l-2.617 2.628c-.769 1.05.301 2.466 1.564 1.914l3.317-3.195zm13.179-15.406c-1.611-.237-1.476.12-3.335 1.964-.345.343-1.086.998-1.323 1.417-.604 1.07.622 2.84 2.24 1.214 2.836-2.848 3.574-2.865 2.418-4.595zm-21.236 9.286v.851c.6.229.043.767 1.48.794.715.013 1.454-.002 2.174-.002.822 0 3.233.358 2.962-1.381-.213-1.367-1.737-1.13-3.19-1.13-.647 0-1.56-.056-2.172 0-.922.083-.77.672-1.254.868zm13.237-12.322h-.989c-.206.423-.711.517-.793 1.26-.062.566-.001 1.553-.001 2.165 0 1.333-.242 3.005 1.117 3.194 1.73.24 1.395-1.866 1.394-2.965 0-.718.022-1.461.004-2.175-.035-1.354-.453-.813-.732-1.48zM121.592 104h.914l4.006-3.997c.252-.312.275-.53.567-.633v-.858c-.364-.15-.21-.191-.488-.533l-1.542-1.54c-.775-.764-5.788-5.587-5.936-6.14.646-.499 2.22-1.233 2.88-1.667.28-.185.637-.41.916-.552.638-.326 1.545-.816 1.884-1.208.495-.572.427-1.443-.36-1.908l-5.369-2.163c-2.496-1.052-5.847-2.176-8.095-3.217l-5.42-2.14c-.208-.078-.292-.13-.47-.2l-3.754-1.5c-1.305-.548-1.978-.989-2.715-.331-.322.287-.522.672-.43 1.163l3.408 8.616c.145.345.332.747.437 1.032l5.946 14.976c.476 1.028 1.612.907 2.055.474.363-.356 1.841-3.055 2.218-3.717l1.135-1.864c.569.106 1.73 1.497 2.192 1.947l5.021 5.026c.76.765.843.55 1 .934z"/>
</svg>
