<svg xmlns="http://www.w3.org/2000/svg" width="164" height="197" viewBox="0 0 164 197">
    <path fill="#23A6B3" fill-rule="evenodd" d="M116.786 178.858l-.267-28.58h28.313l-28.046 28.58zm-92.829-39.47c0 5.084 2.539 7.623 7.623 7.623h54.448v-11.98H29.402c-2.26 0-5.445 3.187-5.445 4.357zm0 22.868c0 2.54 2.906 5.445 5.445 5.445h56.626v-11.979H31.58c-4.399 0-7.623 2.371-7.623 6.534zM91.473 58.804c-1.128-2.349-1.536-6.786 2.41-4.622 2.481 1.36 2.476 4.504-2.41 4.622zm-63.16-9.8c.43-5.038-1.092-2.176 1.82-3.579 1.37-.66 1.857-.558 2.803 1.168 2.163 3.947-2.274 3.538-4.623 2.41zm98.006-11.979h4.357v4.356h-4.357v-4.356zm-69.693 0h4.356v4.356h-4.356v-4.356zM33.758 54.449c4.563-6.815 4.926-8.297 14.038-11.153 6.273-1.966 3.841-.182 8.586 1.72 5.15 2.063 6.053-.602 8.955-2.546 2.047 1.083 18.311 10.415 19.146 11.346 3.04 3.385.45 1.16 2.314 5.316 4.657 10.376 13.328-1.473 13.329-1.475l18.951-11.643c8.113-4.551 2.652.478 10.247-.442 4.64-.562 5.707-3.975 5.707-9.636-4.022-3.486-3.44-4.167-11.978-2.177-.1.426-1.061 4.354-1.07 4.374-1.054 2.416-.47 1.493-2.471 2.975L98.007 53.36c-1.485-5.56-3.74-3.552-8.262-2.913-3.738.53-21.134-10.299-23.73-13.01-1.637-1.711-5.622-9.287-12.859-1.713-3.415 3.576-14.85 6.98-15.525 7.045-4.006.393-.069-1.388-10.407-1.388-4.904 7.324-4.998 13.068 6.534 13.068l-4.356 3.267v54.448h26.135v-64.25c-4.207.094-7.936 1.329-11.6 2.557-4.337 1.452-6.341 3.083-10.18 3.978zm30.491 57.715h26.135V70.783c0-2.845-3.877-3.617-11.685-11.184-3.086-2.992-10.063-8.484-14.45-9.506v62.07zm34.846-45.737v45.737c15.684 0 27.224 2.415 27.224-3.267 0-64.756 4.431-66.337-12.913-52.117-3.576 2.932-9.783 8.592-14.31 9.647zm5.445 82.762v34.846H11.98V11.98h139.387V137.21h-30.491c-8.79 0-16.335 3.452-16.335 11.979zM0 11.979v172.056c0 5.7 4.865 11.98 10.89 11.98h104.54c3.079 0 47.914-44.836 47.914-47.915V11.979c0-5.7-4.865-11.979-10.89-11.979H10.89C4.865 0 0 6.28 0 11.979z"/>
</svg>
