<svg xmlns="http://www.w3.org/2000/svg" width="42" height="42" viewBox="0 0 42 42">
    <g fill="#23A6B3" fill-rule="evenodd">
        <path d="M18.738 3.723c-8.87 1.429-16.74 9.235-15.181 19.995 1.28 8.83 9.488 16.6 20.032 15.092C39.11 36.59 43.994 17.584 32.296 7.56c-3.061-2.623-8.228-4.694-13.558-3.836zM18.372.97C8.11 2.624-.995 11.654.81 24.103 2.289 34.32 11.786 43.31 23.986 41.565 41.94 38.997 47.593 17.007 34.058 5.408 30.517 2.374 24.54-.022 18.372.97z"/>
        <path d="M18.722 5.145c-8.21 1.19-15.341 8.823-13.75 18.637 1.332 8.213 8.819 15.11 18.68 13.6 8.169-1.252 15.02-8.877 13.571-18.63-1.21-8.15-8.808-15.014-18.5-13.607zm-8.427 6.879l7.986 7.89c1.26 1.325.192 1.601 1.13 2.787 1.429 1.807 2.94-.108 4.184-.346l6.133-.047.064-2.093c-1.61-.056-5.453.287-6.629-.169-1.068-.415.695-.116-2.404-1.008-1.147-.331-8.039-7.642-8.86-8.6-.815.347-1.241.788-1.604 1.586z"/>
    </g>
</svg>
