<svg xmlns="http://www.w3.org/2000/svg" width="130" height="141" viewBox="0 0 130 141">
    <g fill="#FFF" fill-rule="evenodd">
        <path d="M107.133.284H23.329c-6.235 0-11.903 2.551-16 6.647C3.235 11.027.684 16.695.684 22.93v94.467c0 6.234 2.551 11.903 6.647 15.999s9.764 6.647 16 6.647h83.803c6.233 0 11.902-2.551 15.998-6.647s6.647-9.765 6.647-16V22.93c0-6.235-2.551-11.903-6.647-15.999S113.366.284 107.133.284zM23.329 7.36h83.804c4.276 0 8.171 1.758 10.991 4.578 2.82 2.82 4.578 6.716 4.578 10.992v94.467c0 4.277-1.758 8.172-4.578 10.992-2.82 2.82-6.715 4.577-10.991 4.577H23.329c-4.277 0-8.172-1.757-10.993-4.577-2.82-2.82-4.576-6.715-4.576-10.992V22.93c0-4.276 1.756-8.172 4.576-10.992 2.82-2.82 6.716-4.578 10.993-4.578z"/>
        <path d="M65.227 37.777c-15.368 0-27.827 12.46-27.827 27.832 0 15.373 12.459 27.833 27.827 27.833 15.375 0 27.833-12.46 27.833-27.833 0-15.372-12.458-27.832-27.833-27.832zm0 70.271c-18.572 0-33.628 10.316-33.628 20.634s.183 4.08.54 6.036c0 2.391 1.962 4.34 4.346 4.34h57.218c4.005 0 5.16-7.026 5.16-10.376 0-10.558-15.06-20.634-33.636-20.634z"/>
    </g>
</svg>
