<svg xmlns="http://www.w3.org/2000/svg" width="109" height="130" viewBox="0 0 109 130">
    <path fill="#23A6B3" fill-rule="evenodd" d="M77.455 118.621l-.176-18.954h18.777l-18.6 18.954zM15.89 92.444c0 3.372 1.683 5.056 5.056 5.056h36.11v-7.944H19.5c-1.499 0-3.61 2.112-3.61 2.888zm0 15.167c0 1.684 1.926 3.61 3.61 3.61h37.556v-7.944h-36.11c-2.918 0-5.056 1.572-5.056 4.334zM60.667 39c-.747-1.558-1.018-4.5 1.599-3.066 1.645.902 1.642 2.988-1.599 3.066zm-41.888-6.5c.284-3.341-.725-1.442 1.207-2.373.908-.438 1.232-.37 1.858.774 1.435 2.617-1.508 2.346-3.065 1.599zm65-7.944h2.888v2.888h-2.888v-2.888zm-46.223 0h2.89v2.888h-2.89v-2.888zM22.39 36.11c3.026-4.52 3.267-5.503 9.31-7.397 4.16-1.302 2.547-.12 5.694 1.14 3.415 1.37 4.015-.397 5.94-1.687 1.356.718 12.143 6.907 12.697 7.525 2.018 2.245.298.77 1.534 3.525 3.09 6.882 8.84-.977 8.842-.978l12.569-7.722c5.38-3.019 1.758.318 6.795-.293 3.078-.372 3.785-2.637 3.785-6.391-2.668-2.311-2.282-2.764-7.945-1.444-.065.283-.703 2.888-.71 2.901-.698 1.602-.31.99-1.638 1.973L65 35.39c-.985-3.687-2.479-2.356-5.478-1.932-2.48.35-14.018-6.83-15.739-8.628-1.086-1.135-3.729-6.16-8.528-1.137-2.266 2.371-9.849 4.63-10.297 4.673-2.656.26-.045-.92-6.902-.92-3.252 4.856-3.315 8.666 4.334 8.666l-2.89 2.167v36.11h17.334v-42.61c-2.79.062-5.264.88-7.693 1.695-2.877.964-4.206 2.044-6.751 2.638zM42.61 74.39h17.335V46.944c0-1.886-2.573-2.398-7.75-7.417-2.048-1.985-6.674-5.627-9.585-6.304v41.166zm23.112-30.333v30.333c10.402 0 18.056 1.601 18.056-2.168 0-42.946 2.937-43.995-8.565-34.563-2.372 1.944-6.49 5.698-9.491 6.398zm3.611 54.888v23.112H7.946V7.944h92.444V91H80.167c-5.83 0-10.833 2.29-10.833 7.944zM0 122.056C0 125.835 3.228 130 7.223 130h69.333c2.042 0 31.778-29.736 31.778-31.779V7.944c0-3.779-3.228-7.944-7.223-7.944H7.223C3.228 0 0 4.165 0 7.944v114.112z"/>
</svg>
