<svg xmlns="http://www.w3.org/2000/svg" width="128" height="130" viewBox="0 0 128 130">
    <path fill="#00C3B4" fill-rule="evenodd" d="M110.048 124.57h-1.589c-6.006 0-11.76-5.755-11.76-11.76v-1.59c0-6.005 5.754-11.76 11.76-11.76h1.59c8.587 0 14.3 10.066 10.706 17.7-1.927 4.093-5.874 7.41-10.707 7.41zm-45.45 0c-4.024 0-6.878-.758-9.627-3.405-5.01-4.828-4.996-13.302-.16-18.142 10.83-10.835 29.29 4.312 18.194 17.557-1.584 1.89-5.087 3.99-8.407 3.99zM5.163 111.855c0-6.39 5.659-12.395 11.124-12.395 3.124 0 4.553-.255 7.363 1.219.597.313 1.222.676 1.763 1.098 10.28 8.034 3.854 22.791-7.536 22.791-3.662 0-7.098-1.827-8.992-3.722-1.846-1.845-3.722-5.451-3.722-8.991zm59.435-68.651c-4.024 0-6.878-.758-9.627-3.405-7.015-6.759-4.474-21.704 9.627-21.704 3.384 0 6.295 1.899 8.078 3.682 5.377 5.377 4.796 13.955-1.151 18.818-1.72 1.405-4.426 2.609-6.927 2.609zM45.846 30.174c0 5.121 1.78 9.36 4.525 12.32 2.75 2.964 5.845 4.732 10.414 5.796v7.628c-.673-.323-3.322-.72-4.39-1.013-9.479-2.596-17.859-12.805-17.859-22.189 0-6.546.491-11.354 4.673-16.94.717-.958 1.93-2.46 2.785-3.253 7.84-7.258 19.194-9.444 28.565-4.706 1.608.812 2.45 1.133 3.845 2.194 6.187 4.704 10.668 11.348 10.668 20.799 0 9.08-4.985 16.864-11.58 21.157-2.909 1.894-7.48 3.633-11.305 3.951V48.29c4.204-.35 9.035-3.466 11.085-6.078 1.571-2.004 2.198-2.796 3.226-5.357 2.722-6.79.352-15.486-5.272-19.852-7.801-6.056-17.375-5.692-23.9.851-2.75 2.756-5.48 6.968-5.48 12.32zm-12.713-.636c0 5.271.635 9.248 2.646 13.562 1.473 3.16 3.357 6.079 5.692 8.61 3.603 3.906 12.002 9.293 19.314 9.293v7.628H17.877c-1.731 0-2.86 1.13-2.86 2.86v22.884c-2.397.053-6.257 1.956-8.022 3.42-.828.686-1.516 1.093-2.232 1.901-11.025 12.468-1.167 29.959 11.842 29.959 5.974 0 9.546-.798 13.75-5.004 4.23-4.233 5.32-7.963 5.32-13.748 0-4.905-2.476-8.382-4.714-11.177-1.787-2.232-7.11-5.274-10.541-5.351v-20.34l40.365-.319v20.659c-8.885 2.07-14.94 8.419-14.94 18.116 0 11.985 15.045 24.607 29.927 12.763 2.237-1.78 4.13-5.173 5.078-7.952 2.555-7.49-1.325-17.01-8.091-20.6-1.742-.923-4.293-2.136-6.572-2.327V73.716h40.365v20.659c-2.245.523-4.043 1-5.94 2.006-9.779 5.19-12.868 19.42-4.155 28.113 15.535 15.498 41.177-4.9 26.172-24.266-2.55-3.29-6.653-4.916-10.674-5.853l.005-20.981c.014-1.572-.044-4.763-2.23-4.763H66.188v-7.628c4.598 0 8.47-1.702 11.654-3.283 3.831-1.903 5.618-3.666 8.454-6.486 2.103-2.09 4.613-6.08 5.826-9.111 1.086-2.717 2.726-9.067 2.178-12.713-.173-1.148-.085-2.119-.265-3.247-.51-3.203-1.327-5.903-2.737-8.705C82.135-.759 59.552-5.472 44.501 6.898c-.772.634-1.368 1.038-2.078 1.736-2.592 2.541-4.569 5.432-6.22 8.718-1.507 2.996-3.07 7.85-3.07 12.186z"/>
</svg>
