<svg xmlns="http://www.w3.org/2000/svg" width="111" height="130" viewBox="0 0 111 130">
    <g fill="#4788B2" fill-rule="evenodd">
        <path d="M0 129.293h41.045l2.61-.092 22.39.01 2.61.095 41.792-.013.083-63.674h.663H0v63.674zm45.586-42.235c-.484-1.007-.657-2.911 1.034-1.983 1.063.583 1.06 1.932-1.034 1.983zM92.96 90.78c0-2.18-1.088-3.27-3.268-3.27H66.345v5.138h24.28c.968 0 2.335-1.366 2.335-1.868zm0-9.806c0-1.088-1.247-2.334-2.335-2.334h-24.28v5.136h23.347c1.886 0 3.268-1.017 3.268-2.802zm0 26.867c0-2.18-1.088-3.27-3.268-3.27H66.345v5.138h24.28c.968 0 2.335-1.366 2.335-1.868zm0-9.807c0-1.088-1.247-2.333-2.335-2.333h-24.28v5.136h23.347c1.886 0 3.268-1.018 3.268-2.803zM20.84 85.19l-1.87 1.402v23.346h11.207V82.388c-1.803.041-3.402.57-4.974 1.096-1.86.623-2.719 1.322-4.364 1.705 1.956-2.922 2.112-3.557 6.018-4.782 2.691-.842 1.648-.078 3.682.737 2.209.887 2.596-.257 3.84-1.091.877.464 7.852 4.466 8.21 4.866 1.303 1.451.192.497.992 2.28 1.997 4.448 5.715-.633 5.715-.634l8.127-4.992c3.478-1.951 1.137.205 4.394-.19 1.989-.24 2.447-1.705 2.447-4.131-1.725-1.494-1.476-1.787-5.136-.934-.043.183-.456 1.867-.46 1.876-.45 1.036-.2.64-1.06 1.276l-9.22 5.252c-.637-2.384-1.603-1.522-3.543-1.248-1.603.227-9.063-4.416-10.176-5.578-.701-.734-2.41-3.983-5.514-.734-1.463 1.533-6.366 2.99-6.656 3.02-1.719.168-.03-.595-4.462-.595-2.103 3.14-2.143 5.602 2.802 5.602zm-2.336-2.334c.184-2.161-.468-.933.78-1.535.588-.283.796-.239 1.202.501.928 1.691-.975 1.518-1.982 1.034zm42.024-5.136h1.868v1.868h-1.868v-1.868zm-29.884 0h1.868v1.868h-1.868v-1.868zm3.27 32.218h11.205V92.194c0-1.22-1.662-1.551-5.01-4.796-1.324-1.283-4.315-3.638-6.196-4.075v26.614zm14.94-19.61v19.61c6.725 0 11.674 1.035 11.674-1.4 0-27.767 1.899-28.445-5.537-22.348-1.533 1.258-4.195 3.685-6.137 4.137zM81.751 53.357c-4.287 1.81-6.293 4.352-13.85 5.226-1.659.192-3.254.01-4.75.149-2.135.198-1.373 1.15-3.652 1.037-1.076-.054-6.873-1.626-7.551-2.125-1.645-1.21-3.312-8.868 8.932-4.096 3.56 1.387-.82 3.272 6.943 2.343 5.403-.648 9.277-2.668 13.4-5.562 2.198-1.543 3.399-2.004 4.2-5.524 1.23-5.411.978-11.957-.847-16.792-3.277-8.683-10.51-15.657-20.19-18.265C36.4 2.205 14.866 35.81 35.337 58.584c.818.908 1.607 1.54 2.567 2.288 1.544 1.206 1.608.895 3.978.868l28.742-.007c4.55.024 4.581-.403 6.92-2.783 1.43-1.451 3.388-3.447 4.208-5.593"/>
        <path d="M25.885 50.086V27.7l-2.53.44c2.417-12.66 17.577-22.79 32.967-22.837C71.805 5.253 87.5 15.505 89.78 28.135l-2.472-.525-.017 22.476c3.413-.318 6.059-1.347 6.076-5.578.043-10.578.957-20.839-5.373-29.457C82.289 7.284 70.622.121 56.696.001 43.294-.114 30.34 7.47 25.229 14.892c-6.584 9.563-5.283 17.98-5.367 29.24-.034 4.497 1.652 5.527 6.023 5.954"/>
    </g>
</svg>
