<svg xmlns="http://www.w3.org/2000/svg" width="130" height="102" viewBox="0 0 130 102">
    <path fill="#4788B2" fill-rule="evenodd" d="M99.036 76.582c.539-.045 1.75.65 2.28.836 2.694.952 6.388 2.653 9.188 3.68l6.958 2.813c-.08.168-.026.218-.428.452l-2.47 1.41c-2.872 1.694-2.572 1.834-.352 4.067.641.646 6.221 6.16 6.25 6.347.065.438-1.551 1.822-1.71 1.83-.355.018-2.758-2.561-3.225-3.043-1.283-1.32-2.115-2.075-3.173-3.161-.392-.404-1.147-1.244-1.582-1.53-1.414-.927-2.159 1.212-3.074 2.74l-1.166 2.02-.3-.225a1.062 1.062 0 0 1-.048-.056l-1.627-4.137c-.127-.317-.245-.742-.432-1.14-.189-.396-.3-.803-.49-1.194-.568-1.168-2.096-5.456-2.81-7.074-.226-.51-1.817-4.359-1.789-4.635zM1.725 0h126.55c.952 0 1.725.772 1.725 1.725v11.578c0 .953-.773 1.725-1.725 1.725H1.725A1.725 1.725 0 0 1 0 13.303V1.725C0 .772.773 0 1.725 0zM126.55 3.45H3.45v8.128h123.1V3.45zM1.725 21.678h126.55c.952 0 1.725.772 1.725 1.725v11.578c0 .953-.773 1.726-1.725 1.726H1.725A1.726 1.726 0 0 1 0 34.98V23.403c0-.953.773-1.725 1.725-1.725zm124.825 3.45H3.45v8.129h123.1v-8.129zM1.725 43.355h126.55c.952 0 1.725.773 1.725 1.725v11.58c0 .951-.773 1.724-1.725 1.724H1.725A1.725 1.725 0 0 1 0 56.659V45.08c0-.951.773-1.724 1.725-1.724zm124.825 3.45H3.45v8.13h123.1v-8.13zM1.725 66.757H73.27v11.578H1.725V66.757zm89.922.668c-.292-.674-1.455-.492-1.861-.093-.224.22-.369.497-.352.962.003.087.074.48.104.548.154.36.101.25.419.36l2.785 2.791c.42.264 1.338.263 1.692-.119 1.257-1.355-1.774-3.053-2.787-4.45zm2.285 14.158c.124-.173.157-.972.072-1.277-.129-.464-1-1.302-2.275-.034l-2.545 2.556c-.748 1.023.292 2.4 1.521 1.863l3.227-3.108zm12.822-14.99c-1.567-.23-1.436.116-3.244 1.911-.335.333-1.057.97-1.286 1.378-.589 1.041.604 2.763 2.18 1.182 2.758-2.772 3.475-2.788 2.35-4.47zm-20.66 9.035v.828c.583.222.041.745 1.439.772.697.013 1.415-.001 2.115-.001.8 0 3.146.348 2.882-1.344-.207-1.33-1.69-1.1-3.105-1.1-.628 0-1.516-.054-2.112 0-.896.081-.748.654-1.22.845zm12.878-11.989h-.961c-.201.412-.693.504-.772 1.226-.06.551-.001 1.511-.001 2.107 0 1.296-.237 2.923 1.086 3.108 1.683.233 1.357-1.815 1.357-2.886 0-.699.02-1.421.003-2.115-.033-1.318-.44-.792-.712-1.44zm19.328 37.546h.89l3.898-3.889c.244-.303.267-.517.551-.616v-.834c-.354-.146-.204-.187-.475-.52l-1.5-1.498c-.754-.743-5.632-5.435-5.776-5.973.629-.486 2.16-1.2 2.802-1.622.273-.18.621-.398.893-.538.619-.317 1.501-.793 1.832-1.175.482-.556.417-1.403-.35-1.856l-5.224-2.104c-2.429-1.024-5.688-2.117-7.875-3.13l-5.273-2.081c-.203-.077-.286-.127-.458-.196l-3.652-1.459c-1.27-.533-1.926-.962-2.642-.323-.313.28-.508.655-.419 1.132l3.316 8.384c.14.334.323.725.425 1.003l5.785 14.571c.464 1 1.568.883 2 .46.353-.345 1.791-2.97 2.157-3.616l1.105-1.813c.553.103 1.683 1.456 2.132 1.894l4.885 4.89c.74.744.82.535.973.909z"/>
</svg>
