<svg xmlns="http://www.w3.org/2000/svg" width="714" height="71" viewBox="0 0 714 71">
    <g fill="#FFF" fill-rule="evenodd">
        <path d="M119.73 68.095h4.24L104.275 39.92l17.399-17.841h-4.504L89.967 49.282V2.56h-3.71v65.535h3.71V54.582l11.658-12.012 18.106 25.525zm63.151-46.104c-12.983 0-22.433 9.627-22.433 23.14s9.45 23.053 22.433 23.053c7.331 0 13.602-2.739 17.841-7.331l-2.12-2.385c-3.709 4.063-9.273 6.36-15.544 6.36-10.687 0-18.46-7.508-18.99-18.725h40.187c.265-14.22-7.86-24.112-21.374-24.112zm-18.724 20.844c.883-10.422 8.39-17.488 18.724-17.488 10.51 0 17.311 7.066 18.018 17.488h-36.742zm-25.966-9.186V22.08h-3.71v46.016h3.71V43.188c.795-10.686 6.977-17.4 17.134-17.4v-3.797c-8.215.177-14.22 4.24-17.134 11.658zM239.849 28.615l1.59-3.002c-3.622-2.209-8.038-3.622-13.16-3.622-8.126 0-15.103 3.533-15.103 11.57 0 15.81 27.203 9.892 26.85 22.876-.266 5.829-5.83 8.39-12.277 8.39-5.83 0-11.393-2.12-15.368-5.83l-1.678 2.827c4.24 4.063 10.422 6.36 16.869 6.36 8.302 0 15.987-3.799 15.987-12.366 0-16.25-26.85-10.157-26.85-22.522 0-5.476 5.034-7.949 11.482-7.949 4.416 0 8.478 1.237 11.658 3.268zm80.55-6.624c-12.984 0-22.434 9.627-22.434 23.14s9.45 23.053 22.433 23.053c7.332 0 13.602-2.739 17.841-7.331l-2.12-2.385c-3.709 4.063-9.273 6.36-15.544 6.36-10.687 0-18.46-7.508-18.99-18.725h40.187c.266-14.22-7.86-24.112-21.374-24.112zm-18.725 20.844c.883-10.422 8.39-17.488 18.724-17.488 10.511 0 17.311 7.066 18.018 17.488h-36.742zm-13.778-11.746l2.12-2.651c-4.063-4.063-9.804-6.447-16.428-6.447-12.984 0-22.522 9.627-22.522 23.14s9.538 23.053 22.522 23.053c7.155 0 13.248-2.739 17.311-7.508l-2.208-2.384c-3.533 4.15-8.833 6.447-15.014 6.447-11.04 0-18.99-8.038-18.99-19.696 0-11.481 7.95-19.52 18.99-19.52 5.74 0 10.51 2.12 14.219 5.566zM377.454 21.991c-9.185.177-15.721 4.24-18.813 11.835V22.08h-3.708v46.015h3.708V43.188c.796-10.598 7.331-17.222 17.93-17.487 9.45 0 15.015 5.563 15.015 15.014v27.38h3.71V40.009c0-11.217-6.625-18.018-17.842-18.018zm112.08 0c-13.07 0-22.697 9.539-22.697 23.052 0 13.601 9.626 23.14 22.698 23.14 13.16 0 22.699-9.539 22.699-23.14 0-13.513-9.539-23.052-22.7-23.052zm0 3.533c11.13 0 19.078 8.038 19.078 19.519 0 11.658-7.949 19.696-19.077 19.696-11.04 0-19.078-8.038-19.078-19.696 0-11.481 8.038-19.52 19.078-19.52zM449.26 2.56v31.53c-3.444-7.594-10.598-12.276-19.695-12.276-12.984 0-22.346 9.716-22.346 23.317 0 13.513 9.362 23.229 22.434 23.229 9.009 0 16.163-4.681 19.607-12.277v12.012h3.71V2.56h-3.71zm-19.166 62.355c-11.217 0-19.166-8.302-19.254-19.784.088-11.393 8.126-19.784 19.254-19.784 11.13 0 19.166 8.302 19.166 19.784s-8.037 19.784-19.166 19.784z"/>
        <path fill-opacity=".5" d="M6.257.37h37.759l25.93 31.123V64.06c0 3.295-2.696 5.99-5.991 5.99h-6.748L1.323 2.976A5.995 5.995 0 0 1 6.257.37"/>
        <path fill-opacity=".75" d="M57.207 70.05H12.344L.266 55.552V6.361c0-1.254.39-2.422 1.057-3.386L57.207 70.05z"/>
        <path fill-opacity=".25" d="M44.016.37h19.939c3.295 0 5.992 2.696 5.992 5.991v25.132L44.016.37z"/>
        <path d="M12.345 70.05H.266V55.552zM523.559 4.226v64.279h11.386V22.59l18.993 39.302h7.989L580.92 22.59l.092 45.914h11.219V4.225h-14.157l-20.095 41.23-20.187-41.23H523.56zm156.575 0h-26.722v64.279h26.262c19.835 0 33.976-13.407 33.976-32.14 0-18.824-14.05-32.14-33.516-32.14zm.275 53.443h-14.692V15.06h14.234c12.029 0 21.12 8.816 21.12 21.396 0 12.488-8.816 21.212-20.662 21.212zM599.505 4.226v64.279h48.21V57.76H611.81V41.599h31.221V30.855h-31.22V14.97h34.801V4.226h-47.107z"/>
    </g>
</svg>
