<svg xmlns="http://www.w3.org/2000/svg" width="405" height="610" viewBox="0 0 405 610">
    <g fill="#6A6BB1" fill-rule="evenodd">
        <path d="M344.214 88.46c1.062 0 1.923.792 1.923 1.77 0 .976-.861 1.768-1.923 1.768h-7.69c-1.06 0-1.922-.792-1.922-1.769 0-.977.861-1.769 1.923-1.769h7.69zM4.351 139.151c-.006.977-.872 1.764-1.934 1.758-1.062-.006-1.917-.803-1.91-1.78v-.077l.002-.327.005-.325.008-.325.009-.328.012-.323.013-.324.016-.324.017-.322.02-.323.021-.322.025-.322.025-.32.028-.32.03-.32.03-.32.035-.32.035-.317.037-.318.04-.317.042-.319.044-.314.045-.314.022-.147c.149-.966 1.122-1.639 2.173-1.502 1.05.137 1.782 1.032 1.634 1.998l-.02.124-.042.297-.04.296-.04.295-.036.296-.036.297-.033.299-.032.298-.029.296-.028.301-.026.3-.024.301-.022.301-.02.3-.018.302-.017.303-.015.303-.011.303-.012.306-.009.3-.006.305-.005.308-.003.305v.078zm3.157-16.758c-.358.92-1.459 1.398-2.458 1.07-1-.328-1.52-1.342-1.163-2.26l.044-.116.114-.29.116-.289.117-.286.118-.286.12-.284.122-.286.123-.283.126-.283.126-.281.128-.28.13-.281.133-.28.134-.277.135-.279.138-.276.136-.274.141-.276.141-.273.144-.272.146-.273.146-.27.147-.27.151-.27.097-.17c.492-.866 1.654-1.2 2.594-.749.94.452 1.305 1.522.813 2.387l-.089.157-.139.25-.138.25-.138.254-.134.252-.133.255-.133.255-.13.254-.13.26-.127.257-.126.257-.125.262-.122.259-.12.26-.122.264-.118.263-.117.264-.116.264-.113.266-.112.266-.111.268-.11.27-.107.265-.105.27-.044.115zm9.097-14.766c-.681.75-1.894.849-2.708.223-.814-.626-.922-1.743-.241-2.492l.105-.117.208-.226.206-.223.21-.225.212-.223.212-.22.213-.219.212-.217.217-.219.22-.217.216-.212.219-.213.222-.214.223-.21.222-.21.226-.208.226-.207.226-.204.228-.204.233-.205.23-.2.23-.2.235-.2.235-.197.234-.195.11-.09c.794-.65 2.01-.582 2.714.148.704.73.633 1.848-.16 2.497l-.093.076-.22.183-.218.183-.215.183-.217.187-.216.188-.21.185-.212.19-.212.191-.21.193-.209.193-.207.194-.207.196-.204.195-.205.2-.204.2-.2.2-.2.2-.2.204-.2.205-.196.205-.194.205-.194.207-.195.211-.192.209-.105.116zM30.78 96.873c-.936.46-2.101.134-2.601-.727-.5-.86-.146-1.933.79-2.393l.177-.087.278-.137.28-.133.28-.133.282-.131.283-.13.283-.127.285-.126.286-.125.285-.123.288-.12.288-.12.29-.117.289-.116.291-.115.29-.11.291-.112.296-.109.293-.107.295-.105.296-.104.296-.102.296-.1.301-.1.299-.095.202-.064c1.004-.315 2.097.179 2.44 1.103.343.923-.195 1.93-1.2 2.244l-.183.059-.275.088-.272.09-.274.092-.273.094-.273.095-.27.097-.272.099-.267.1-.27.102-.271.105-.267.104-.266.107-.266.108-.265.11-.265.11-.263.113-.263.115-.262.116-.261.118-.26.12-.26.12-.26.123-.257.124-.257.125-.177.087zm17.53-4.763c-1.059.067-1.978-.668-2.05-1.641-.074-.974.726-1.82 1.784-1.887l.257-.016.323-.02.326-.018.33-.016.325-.014.326-.011.331-.01.33-.007.326-.005.329-.004h4.617c1.061 0 1.922.791 1.922 1.768S56.925 92 55.864 92H51.275l-.303.002-.304.005-.301.007-.299.008-.303.012-.302.012-.297.014-.298.016-.302.019-.257.016zm19.088-.112c-1.062 0-1.923-.792-1.923-1.769 0-.977.86-1.769 1.923-1.769h7.689c1.061 0 1.922.792 1.922 1.77 0 .976-.86 1.768-1.922 1.768h-7.69zm19.223 0c-1.061 0-1.922-.792-1.922-1.769 0-.977.86-1.769 1.922-1.769h7.69c1.06 0 1.922.792 1.922 1.77 0 .976-.861 1.768-1.923 1.768h-7.689zm19.223 0c-1.061 0-1.922-.792-1.922-1.769 0-.977.861-1.769 1.922-1.769h7.69c1.061 0 1.922.792 1.922 1.77 0 .976-.86 1.768-1.922 1.768h-7.69zm19.224 0c-1.062 0-1.923-.792-1.923-1.769 0-.977.861-1.769 1.923-1.769h7.69c1.06 0 1.922.792 1.922 1.77 0 .976-.861 1.768-1.923 1.768h-7.69zm19.223 0c-1.061 0-1.922-.792-1.922-1.769 0-.977.86-1.769 1.922-1.769h7.69c1.061 0 1.922.792 1.922 1.77 0 .976-.861 1.768-1.922 1.768h-7.69zm19.224 0c-1.062 0-1.923-.792-1.923-1.769 0-.977.861-1.769 1.923-1.769h7.689c1.061 0 1.922.792 1.922 1.77 0 .976-.86 1.768-1.922 1.768h-7.69zm19.223 0c-1.061 0-1.922-.792-1.922-1.769 0-.977.86-1.769 1.922-1.769h7.69c1.061 0 1.922.792 1.922 1.77 0 .976-.86 1.768-1.923 1.768h-7.689zm19.223 0c-1.061 0-1.922-.792-1.922-1.769 0-.977.861-1.769 1.922-1.769h7.69c1.062 0 1.922.792 1.922 1.77 0 .976-.86 1.768-1.922 1.768h-7.69zm19.223 0c-1.061 0-1.922-.792-1.922-1.769 0-.977.86-1.769 1.922-1.769h7.69c1.061 0 1.922.792 1.922 1.77 0 .976-.86 1.768-1.922 1.768h-7.69zm19.224 0c-1.062 0-1.923-.792-1.923-1.769 0-.977.861-1.769 1.923-1.769h7.69c1.06 0 1.921.792 1.921 1.77 0 .976-.86 1.768-1.922 1.768h-7.69zm19.223 0c-1.061 0-1.922-.792-1.922-1.769 0-.977.86-1.769 1.922-1.769h7.69c1.06 0 1.922.792 1.922 1.77 0 .976-.861 1.768-1.923 1.768h-7.689zm19.223 0c-1.06 0-1.922-.792-1.922-1.769 0-.977.861-1.769 1.922-1.769h7.69c1.061 0 1.922.792 1.922 1.77 0 .976-.86 1.768-1.922 1.768h-7.69zm19.224 0c-1.062 0-1.923-.792-1.923-1.769 0-.977.861-1.769 1.923-1.769h7.69c1.06 0 1.922.792 1.922 1.77 0 .976-.861 1.768-1.923 1.768h-7.69zm19.223 0c-1.061 0-1.922-.792-1.922-1.769 0-.977.86-1.769 1.922-1.769h7.69c1.061 0 1.922.792 1.922 1.77 0 .976-.86 1.768-1.922 1.768h-7.69zM401.155 2.186c0-1.061.792-1.922 1.769-1.922.976 0 1.768.86 1.768 1.922v7.69c0 1.061-.792 1.922-1.768 1.922-.977 0-1.77-.86-1.77-1.922v-7.69zm-47.381 89.966c-.977 0-1.77-.861-1.77-1.923 0-1.061.793-1.922 1.77-1.922h.306l.305-.004.308-.005.304-.006.3-.01.307-.01.303-.012.302-.015.304-.017.302-.018.3-.02.301-.023c.974-.08 1.824.713 1.898 1.771.074 1.058-.655 1.982-1.629 2.063l-.019.001-.322.024-.322.022-.323.02-.322.016-.324.017-.325.013-.322.012-.328.009-.326.008-.324.004-.327.004h-.327zm14.693-2.182c-.94.287-1.917-.309-2.18-1.33-.264-1.022.284-2.084 1.223-2.37l.07-.021.28-.087.275-.087.278-.09.277-.091.275-.093.276-.095.275-.096.272-.098.274-.1.271-.1.271-.103.27-.104.269-.105.267-.107.272-.11.266-.111.266-.112.265-.114.265-.115.264-.117.263-.118.262-.12.262-.123.145-.068c.895-.426 1.938.018 2.33.99.391.974-.017 2.107-.912 2.533l-.163.077-.28.13-.28.128-.282.127-.284.126-.282.123-.286.122-.284.12-.288.119-.285.115-.287.116-.291.115-.289.11-.291.11-.291.109-.292.106-.293.104-.294.103-.293.102-.295.1-.296.097-.296.095-.3.096-.298.09-.07.022zm16.434-8.54c-.791.621-1.897.428-2.47-.432-.572-.86-.394-2.061.397-2.683l.206-.161.222-.177.224-.178.221-.18.22-.181.219-.182.219-.184.215-.183.215-.186.217-.188.212-.188.213-.19.211-.191.21-.192.21-.193.206-.194.207-.197.205-.197.202-.196.204-.201.204-.202.2-.2.197-.202.199-.205.185-.193c.704-.736 1.824-.713 2.5.052.678.764.657 1.982-.047 2.718l-.197.206-.212.219-.216.22-.217.217-.216.214-.217.214-.22.215-.222.212-.22.209-.225.21-.225.208-.226.207-.228.206-.226.202-.23.204-.23.2-.232.2-.235.2-.233.196-.236.197-.237.194-.236.191-.238.192-.243.192-.206.16zm12.626-14.305c-.528.893-1.624 1.15-2.444.576-.822-.575-1.058-1.765-.53-2.657l.048-.079.145-.247.144-.247.141-.247.14-.246.139-.25.137-.252.136-.25.135-.254.132-.252.131-.252.13-.257.13-.255.126-.256.125-.257.123-.256.123-.261.122-.26.119-.26.118-.262.116-.26.114-.263.113-.265.111-.264.11-.265.108-.266v.003c.385-.975 1.427-1.425 2.323-1.006.897.418 1.311 1.55.926 2.525l-.01.02-.116.29-.12.288-.12.287-.123.285-.125.287-.126.285-.128.283-.13.284-.13.28-.132.28-.134.28-.137.28-.138.278-.139.277-.14.274-.143.277-.144.273-.145.272-.147.272-.15.272-.149.269-.152.27-.154.268-.155.267-.156.266-.048.078zm6.612-18.53c-.154 1.048-1.061 1.762-2.026 1.594-.964-.167-1.621-1.153-1.468-2.201l.009-.059.042-.292.04-.295.04-.292.036-.292.035-.293.032-.297.032-.294.029-.296.028-.298.025-.296.024-.299.022-.297.02-.297.018-.301.017-.3.014-.296.012-.302.011-.303.009-.299.006-.3.005-.305.003-.303v-.749c0-1.061.793-1.922 1.77-1.922.976 0 1.768.86 1.768 1.922v.777l-.005.33-.005.325-.006.33-.01.331-.012.325-.013.325-.016.33-.018.327-.02.323-.021.326-.024.325-.026.323-.028.324-.03.32-.031.323-.035.324-.036.318-.038.322-.04.322-.042.32-.044.317-.045.316-.008.059zm.553-19.496c0 1.062-.792 1.923-1.768 1.923-.977 0-1.77-.861-1.77-1.923v-7.69c0-1.06.793-1.922 1.77-1.922.976 0 1.768.861 1.768 1.923v7.69zM4.196 607.2c0 1.06-.792 1.922-1.768 1.922-.977 0-1.77-.861-1.77-1.923v-7.689c0-1.061.793-1.922 1.77-1.922.976 0 1.768.86 1.768 1.922v7.69zM.66 157.37c0-1.061.792-1.922 1.769-1.922.976 0 1.768.86 1.768 1.922v7.69c0 1.06-.792 1.922-1.768 1.922-.977 0-1.77-.861-1.77-1.922v-7.69zm0 19.223c0-1.06.792-1.922 1.769-1.922.976 0 1.768.861 1.768 1.922v7.69c0 1.061-.792 1.922-1.768 1.922-.977 0-1.77-.86-1.77-1.922v-7.69zm0 19.224c0-1.062.792-1.923 1.769-1.923.976 0 1.768.861 1.768 1.923v7.69c0 1.06-.792 1.922-1.768 1.922-.977 0-1.77-.861-1.77-1.923v-7.69zm0 19.223c0-1.061.792-1.922 1.769-1.922.976 0 1.768.86 1.768 1.922v7.69c0 1.061-.792 1.922-1.768 1.922-.977 0-1.77-.86-1.77-1.922v-7.69zm0 19.224c0-1.062.792-1.922 1.769-1.922.976 0 1.768.86 1.768 1.922v7.69c0 1.06-.792 1.922-1.768 1.922-.977 0-1.77-.861-1.77-1.923v-7.69zm0 19.223c0-1.061.792-1.922 1.769-1.922.976 0 1.768.86 1.768 1.922v7.69c0 1.061-.792 1.922-1.768 1.922-.977 0-1.77-.86-1.77-1.922v-7.69zm0 19.224c0-1.062.792-1.923 1.769-1.923.976 0 1.768.861 1.768 1.923v7.689c0 1.062-.792 1.922-1.768 1.922-.977 0-1.77-.86-1.77-1.922v-7.69zm0 19.223c0-1.061.792-1.922 1.769-1.922.976 0 1.768.86 1.768 1.922v7.69c0 1.061-.792 1.922-1.768 1.922-.977 0-1.77-.86-1.77-1.923v-7.689zm0 19.224c0-1.062.792-1.923 1.769-1.923.976 0 1.768.86 1.768 1.923v7.69c0 1.06-.792 1.921-1.768 1.921-.977 0-1.77-.86-1.77-1.922v-7.69zm0 19.223c0-1.062.792-1.922 1.769-1.922.976 0 1.768.86 1.768 1.922v7.69c0 1.06-.792 1.922-1.768 1.922-.977 0-1.77-.861-1.77-1.923v-7.689zm0 19.223c0-1.061.792-1.922 1.769-1.922.976 0 1.768.861 1.768 1.922v7.69c0 1.061-.792 1.922-1.768 1.922-.977 0-1.77-.86-1.77-1.922v-7.69zm0 19.224c0-1.062.792-1.923 1.769-1.923.976 0 1.768.861 1.768 1.923v7.69c0 1.06-.792 1.921-1.768 1.921-.977 0-1.77-.86-1.77-1.922v-7.69zm0 19.223c0-1.061.792-1.922 1.769-1.922.976 0 1.768.86 1.768 1.922v7.69c0 1.061-.792 1.922-1.768 1.922-.977 0-1.77-.86-1.77-1.922v-7.69zm0 19.224c0-1.062.792-1.923 1.769-1.923.976 0 1.768.861 1.768 1.923v7.69c0 1.06-.792 1.922-1.768 1.922-.977 0-1.77-.861-1.77-1.923v-7.69zm0 19.223c0-1.061.792-1.922 1.769-1.922.976 0 1.768.86 1.768 1.922v7.69c0 1.06-.792 1.922-1.768 1.922-.977 0-1.77-.861-1.77-1.922v-7.69zm0 19.223c0-1.06.792-1.922 1.769-1.922.976 0 1.768.861 1.768 1.922v7.69c0 1.061-.792 1.922-1.768 1.922-.977 0-1.77-.86-1.77-1.922v-7.69zm0 19.224c0-1.062.792-1.922 1.769-1.922.976 0 1.768.86 1.768 1.922v7.69c0 1.061-.792 1.922-1.768 1.922-.977 0-1.77-.861-1.77-1.923v-7.69zm0 19.223c0-1.061.792-1.922 1.769-1.922.976 0 1.768.86 1.768 1.922v7.69c0 1.061-.792 1.922-1.768 1.922-.977 0-1.77-.86-1.77-1.922v-7.69zm0 19.224c0-1.062.792-1.922 1.769-1.922.976 0 1.768.86 1.768 1.922v7.69c0 1.06-.792 1.922-1.768 1.922-.977 0-1.77-.861-1.77-1.923v-7.689zm0 19.223c0-1.061.792-1.922 1.769-1.922.976 0 1.768.86 1.768 1.922v7.69c0 1.061-.792 1.922-1.768 1.922-.977 0-1.77-.86-1.77-1.922v-7.69zm0 19.224c0-1.062.792-1.923 1.769-1.923.976 0 1.768.861 1.768 1.923v7.69c0 1.06-.792 1.921-1.768 1.921-.977 0-1.77-.86-1.77-1.922v-7.69zm0 19.223c0-1.061.792-1.922 1.769-1.922.976 0 1.768.86 1.768 1.922v7.69c0 1.061-.792 1.922-1.768 1.922-.977 0-1.77-.86-1.77-1.922v-7.69zm0 19.224c0-1.062.792-1.923 1.769-1.923.976 0 1.768.861 1.768 1.923v7.69c0 1.06-.792 1.921-1.768 1.921-.977 0-1.77-.86-1.77-1.922v-7.69z"/>
    </g>
</svg>
