<svg xmlns="http://www.w3.org/2000/svg" width="34" height="25" viewBox="0 0 34 25">
    <g fill="none" fill-rule="evenodd">
        <path fill="#4E2E7F" d="M2.94 7.235h27.886a2.272 2.272 0 0 1 2.267 2.266v13.22a2.273 2.273 0 0 1-2.267 2.267H2.94A2.273 2.273 0 0 1 .673 22.72V9.501a2.272 2.272 0 0 1 2.266-2.266M5.025 4.752L3.45 2.322 4.932.658H3.53L2.158 2.235V.658H.943v4.094h1.215V3.77l.461-.514.952 1.495h1.454zM6.58 2.078v-.503H5.4v3.177h1.18V3.234c0-.461.391-.718 1-.642V1.529c-.434 0-.778.199-1 .55zm2.845-.544c-1.005 0-1.677.648-1.677 1.64 0 .977.649 1.619 1.712 1.619.601 0 1.08-.205 1.413-.572l-.613-.602c-.21.193-.45.303-.701.303-.304 0-.525-.169-.619-.473h2.138c.07-1.167-.537-1.915-1.653-1.915zm.49 1.337h-.999c.06-.32.24-.537.52-.537.286 0 .485.222.479.537zm3.873-.221l.391-.743a2.798 2.798 0 0 0-1.396-.385c-.8 0-1.355.397-1.355 1.063 0 1.087 1.624.911 1.624 1.273 0 .1-.105.146-.263.146-.35 0-.754-.134-1.151-.39l-.362.74c.415.299.935.45 1.495.45.83 0 1.396-.397 1.396-1.05 0-1.087-1.659-.929-1.659-1.285 0-.1.094-.153.24-.153.25 0 .607.112 1.04.334zm2.867.157l.906-.444c-.269-.525-.8-.83-1.466-.83-1.005 0-1.665.655-1.665 1.642 0 .976.654 1.618 1.653 1.618.7 0 1.237-.298 1.483-.823l-.917-.463c-.1.24-.274.351-.502.351-.316 0-.526-.275-.526-.69 0-.401.21-.676.526-.676.222 0 .397.117.508.315zm2.663-1.273c-1.004 0-1.676.648-1.676 1.64 0 .977.649 1.619 1.712 1.619.6 0 1.08-.205 1.413-.572l-.613-.602c-.211.193-.45.303-.701.303-.304 0-.526-.169-.619-.473h2.138c.07-1.167-.538-1.915-1.654-1.915zm.49 1.337h-.998c.059-.32.24-.537.52-.537.286 0 .485.222.479.537zm3.827-1.343c-.445 0-.79.187-1.01.537v-.49h-1.18v3.177h1.18v-1.57c0-.363.198-.614.519-.62.275 0 .455.198.455.513v1.677h1.18V2.737c0-.736-.467-1.209-1.144-1.209zM27.5.418v1.525a1.125 1.125 0 0 0-.9-.41c-.87 0-1.442.637-1.442 1.613 0 .999.584 1.647 1.472 1.647.362 0 .66-.146.87-.403v.362h1.18V.418H27.5zm-.572 3.47c-.35 0-.578-.287-.578-.713 0-.42.227-.706.578-.706.344 0 .572.285.572.706 0 .426-.228.712-.572.712zm4.017-2.354c-1.068 0-1.769.643-1.769 1.63 0 .98.7 1.629 1.77 1.629 1.068 0 1.763-.648 1.763-1.63 0-.986-.695-1.63-1.764-1.63zm0 .935c.345 0 .573.285.573.706 0 .426-.228.707-.573.707-.35 0-.578-.28-.578-.707 0-.42.228-.706.578-.706z"/>
        <path fill="#FFF" d="M4.713 12.135v7.852h2.33v-2.924h2.789v2.924h2.33v-7.852h-2.33v3.125h-2.79v-3.125h-2.33zm10.977 4.537v-4.537h-2.33v4.537c0 2.083 1.468 3.416 3.719 3.416 2.24 0 3.662-1.333 3.662-3.416v-4.537h-2.329v4.537c0 .918-.55 1.467-1.322 1.467-.784 0-1.4-.56-1.4-1.467zm10.103-4.537H21.94v7.852h4.022c1.881 0 3.091-.851 3.091-2.195 0-.997-.616-1.782-1.58-1.983.818-.235 1.334-.896 1.334-1.691 0-1.21-1.176-1.983-3.014-1.983zm-.123 3.08h-1.411v-1.332h1.41c.46 0 .752.246.752.649 0 .415-.292.683-.751.683zm0 3.025h-1.411v-1.423h1.41c.595-.011.976.258.976.683 0 .46-.38.751-.975.74z"/>
    </g>
</svg>
