<svg xmlns="http://www.w3.org/2000/svg" width="715" height="71" viewBox="0 0 715 71">
    <g fill="#FFF" fill-rule="evenodd">
        <path d="M120.193 68.274h4.24L104.737 40.1l17.4-17.842h-4.505L90.428 49.461V2.737h-3.71v65.537h3.71V54.761l11.659-12.013 18.106 25.526zm63.153-46.106c-12.983 0-22.434 9.628-22.434 23.142 0 13.513 9.45 23.053 22.434 23.053 7.332 0 13.602-2.738 17.842-7.331l-2.12-2.386c-3.71 4.064-9.274 6.36-15.545 6.36-10.687 0-18.46-7.507-18.99-18.724h40.188c.265-14.221-7.86-24.114-21.375-24.114zm-18.725 20.845c.883-10.422 8.39-17.488 18.725-17.488 10.511 0 17.312 7.066 18.018 17.488h-36.743zm-25.967-9.186v-11.57h-3.71v46.017h3.71V43.367c.795-10.687 6.977-17.401 17.135-17.401v-3.798c-8.215.177-14.221 4.24-17.135 11.66zM240.316 28.793l1.59-3.003c-3.621-2.208-8.038-3.622-13.16-3.622-8.127 0-15.104 3.533-15.104 11.571 0 15.81 27.205 9.892 26.851 22.876-.265 5.83-5.83 8.392-12.277 8.392-5.83 0-11.394-2.121-15.37-5.83l-1.677 2.826c4.24 4.064 10.422 6.36 16.87 6.36 8.303 0 15.987-3.798 15.987-12.366 0-16.251-26.85-10.157-26.85-22.523 0-5.476 5.033-7.95 11.482-7.95 4.416 0 8.479 1.237 11.658 3.269zm80.553-6.625c-12.983 0-22.434 9.628-22.434 23.142 0 13.513 9.45 23.053 22.434 23.053 7.332 0 13.602-2.738 17.842-7.331l-2.12-2.386c-3.71 4.064-9.274 6.36-15.545 6.36-10.687 0-18.46-7.507-18.99-18.724h40.188c.265-14.221-7.86-24.114-21.375-24.114zm-18.725 20.845c.884-10.422 8.39-17.488 18.725-17.488 10.511 0 17.312 7.066 18.019 17.488h-36.744zm-13.779-11.747l2.12-2.65c-4.063-4.063-9.803-6.448-16.428-6.448-12.984 0-22.524 9.628-22.524 23.142 0 13.513 9.54 23.053 22.524 23.053 7.155 0 13.249-2.738 17.312-7.508l-2.208-2.385c-3.533 4.152-8.833 6.448-15.016 6.448-11.04 0-18.99-8.038-18.99-19.697 0-11.482 7.95-19.52 18.99-19.52 5.741 0 10.51 2.12 14.22 5.565zM377.928 22.168c-9.186.177-15.723 4.24-18.814 11.836V22.257h-3.71v46.017h3.71V43.367c.795-10.6 7.331-17.223 17.93-17.489 9.451 0 15.016 5.564 15.016 15.015v27.381h3.71V40.187c0-11.217-6.625-18.019-17.842-18.019zm112.085 0c-13.073 0-22.7 9.54-22.7 23.053 0 13.602 9.627 23.142 22.7 23.142 13.16 0 22.7-9.54 22.7-23.142 0-13.514-9.54-23.053-22.7-23.053zm0 3.533c11.129 0 19.078 8.038 19.078 19.52 0 11.659-7.95 19.697-19.078 19.697-11.04 0-19.078-8.038-19.078-19.697 0-11.482 8.037-19.52 19.078-19.52zM449.736 2.737v31.532c-3.444-7.596-10.599-12.277-19.696-12.277-12.984 0-22.346 9.715-22.346 23.318 0 13.513 9.362 23.229 22.434 23.229 9.01 0 16.164-4.681 19.608-12.277v12.012h3.71V2.737h-3.71zM430.57 65.095c-11.217 0-19.166-8.303-19.255-19.785.09-11.395 8.127-19.785 19.255-19.785 11.13 0 19.167 8.302 19.167 19.785 0 11.482-8.037 19.785-19.167 19.785z"/>
        <path fill-opacity=".5" d="M6.715.546h37.76l25.932 31.125v32.567c0 3.295-2.697 5.991-5.992 5.991h-6.748L1.78 3.152A5.995 5.995 0 0 1 6.715.546"/>
        <path fill-opacity=".75" d="M57.667 70.23H12.802L.723 55.73V6.538c0-1.254.39-2.422 1.057-3.386l55.887 67.077z"/>
        <path fill-opacity=".25" d="M44.475.546h19.94c3.295 0 5.992 2.697 5.992 5.992V31.67L44.475.546z"/>
        <path d="M12.803 70.23H.723V55.73zM524.038 4.402v64.282h11.387V22.769l18.994 39.302h7.99l18.993-39.302.092 45.915h11.22V4.402h-14.158l-20.097 41.232-20.187-41.232h-14.234zm156.582 0h-26.723v64.282h26.263c19.836 0 33.978-13.407 33.978-32.14 0-18.826-14.05-32.142-33.518-32.142zm.275 53.446h-14.692v-42.61h14.234c12.03 0 21.12 8.816 21.12 21.398 0 12.488-8.816 21.212-20.662 21.212zM599.987 4.402v64.282H648.2V57.94h-35.906V41.778h31.223V31.033h-31.223V15.146h34.804V4.402h-47.11z"/>
    </g>
</svg>
