<svg xmlns="http://www.w3.org/2000/svg" width="126" height="27" viewBox="0 0 126 27">
    <g fill="none" fill-rule="nonzero">
        <path fill="#005DAA" d="M31.05 26.698l-1.711-4.547h-5.574l-1.712 4.547h-2.396l5.917-15.402h2.054l5.867 15.402H31.05zm-2.493-6.6L26.6 14.228h-.05l-2.004 5.868h4.01zM36.772 11.296h4.01c4.4 0 4.84 3.178 4.84 4.254 0 1.711-.88 2.445-1.369 2.934.636.39 2.298 1.369 2.298 3.765 0 1.564-.88 4.498-5.134 4.498h-4.645V11.296zM39.02 17.7h1.858c2.103 0 2.494-1.271 2.494-2.151 0-2.2-2.103-2.2-2.64-2.2H39.02V17.7zm0 6.944h2.445c2.298 0 2.787-1.614 2.787-2.396 0-.538-.244-1.125-.538-1.516-.684-.93-1.76-.93-2.543-.93h-2.2v4.842h.049zM50.365 11.296h2.249v15.403h-2.249zM64.546 26.992c-4.646 0-8.068-3.765-8.068-8.02 0-4.205 3.325-7.97 8.068-7.97a8.003 8.003 0 0 1 8.068 8.02c0 4.205-3.472 7.97-8.068 7.97m0-13.936c-4.01 0-5.82 3.472-5.82 5.917 0 2.542 1.81 5.916 5.82 5.916s5.819-3.472 5.819-5.868c0-2.689-1.956-5.965-5.82-5.965M90.658 26.698V13.692h-.098l-5.183 13.006h-1.37l-5.232-13.006h-.049v13.006h-2.298V11.296h3.57l4.645 11.784 4.694-11.784h3.57v15.402zM98.335 26.698V11.296h8.361v2.053h-6.112v4.548h6.112v2.054h-6.112v4.694h6.112v2.053zM111.733 11.296h5.036c3.228 0 5.135 1.222 6.308 2.836 1.125 1.564 1.614 3.423 1.614 4.89 0 2.102-.783 4.303-1.956 5.427-1.76 1.76-3.863 2.25-6.064 2.25h-4.938V11.295zm2.298 13.349h2.69c2.738 0 5.72-1.37 5.72-5.624 0-2.347-1.467-5.672-5.672-5.672h-2.738v11.296zM3.814 8.85C2.2 8.85.88 10.22.88 11.883v2.103c0 1.662 1.32 3.032 2.934 3.032h1.32c1.614 0 2.934-1.37 2.934-3.032v-2.103c0-1.662-1.32-3.031-2.934-3.031h-1.32zm-1.662 5.184V11.93c0-.978.733-1.76 1.662-1.76h1.32c.93 0 1.663.782 1.663 1.76v2.103c0 .978-.734 1.76-1.663 1.76h-1.32c-.929 0-1.662-.782-1.662-1.76z"/>
        <path fill="#A30046" d="M12.616 9.34c-1.956 0-3.52 1.662-3.52 3.716v2.69c0 2.053 1.564 3.716 3.52 3.716h1.662c1.956 0 3.521-1.663 3.521-3.717v-2.69c0-2.053-1.565-3.715-3.52-3.715h-1.663zm-2.25 6.405v-2.69c0-1.32 1.027-2.444 2.25-2.444h1.662c1.223 0 2.25 1.076 2.25 2.445v2.69c0 1.32-1.027 2.444-2.25 2.444h-1.662c-1.272 0-2.25-1.124-2.25-2.445z"/>
        <path fill="#005DAA" d="M2.787 0C1.271 0 0 1.32 0 2.885V4.89c0 1.613 1.271 2.885 2.787 2.885H4.01c1.564 0 2.787-1.32 2.787-2.885V2.885C6.846 1.32 5.574 0 4.059 0H2.787zM1.271 4.89V2.885c0-.88.685-1.614 1.516-1.614H4.01c.83 0 1.516.734 1.516 1.614V4.89c0 .88-.685 1.613-1.516 1.613H2.787c-.831 0-1.516-.733-1.516-1.613z"/>
        <path fill="#A30046" d="M10.709.489c-1.565 0-2.836 1.32-2.836 2.934v2.005c0 1.613 1.271 2.934 2.836 2.934h1.271c1.565 0 2.836-1.32 2.836-2.934V3.423c0-1.614-1.271-2.934-2.836-2.934H10.71zM9.193 5.428V3.423c0-.88.684-1.614 1.565-1.614h1.271c.831 0 1.565.734 1.565 1.614v2.005c0 .88-.685 1.662-1.565 1.662h-1.271a1.662 1.662 0 0 1-1.565-1.662z"/>
        <path fill="#0072BC" d="M125.522 12.86c-.244.245-.538.343-.88.343-.342 0-.636-.098-.88-.343-.245-.244-.343-.538-.343-.88 0-.342.098-.636.343-.88.244-.245.538-.342.88-.342.342 0 .636.097.88.342.245.244.342.538.342.88 0 .342-.097.636-.342.88zm-1.663-1.613a.995.995 0 0 0-.293.733c0 .293.098.538.293.734.196.195.44.293.734.293a.995.995 0 0 0 .733-.293.995.995 0 0 0 .294-.734.995.995 0 0 0-.294-.733.995.995 0 0 0-.733-.294c-.245 0-.489.098-.734.294zm.734.049c.147 0 .293 0 .391.048.147.05.196.196.196.343a.269.269 0 0 1-.147.244c-.049.05-.098.05-.196.05.098 0 .196.048.245.146.049.049.049.146.049.195v.245h-.245V12.42c0-.147-.049-.244-.146-.293-.05-.05-.147-.05-.245-.05h-.195v.539h-.245v-1.37h.538v.05zm.293.244c-.049-.049-.146-.049-.293-.049h-.196v.49h.196c.098 0 .196 0 .244-.05.098-.049.147-.098.147-.195-.049-.098-.049-.196-.098-.196z"/>
    </g>
</svg>
