<svg xmlns="http://www.w3.org/2000/svg" width="26" height="26" viewBox="0 0 26 26">
    <g fill="none" fill-rule="evenodd">
        <path fill="#FFF" d="M14.73 10.138l4.296 2.48 4.296 2.481c.923.516 1.501 1.26 1.61 2.417-.096.968-.565 1.763-1.61 2.367l-4.296 2.48-4.297 2.48c-1.009.602-2.05.695-3.255 0l-4.295-2.48-4.297-2.48c-.922-.516-1.502-1.26-1.61-2.417.096-.968.565-1.763 1.61-2.367l4.297-2.48 4.295-2.481c1.01-.6 2.051-.694 3.255 0z"/>
        <path stroke="#4E2E7F" stroke-linecap="round" stroke-linejoin="round" d="M14.73 10.138l4.296 2.48 4.296 2.481c.923.516 1.501 1.26 1.61 2.417-.096.968-.565 1.763-1.61 2.367l-4.296 2.48-4.297 2.48c-1.009.602-2.05.695-3.255 0l-4.295-2.48-4.297-2.48c-.922-.516-1.502-1.26-1.61-2.417.096-.968.565-1.763 1.61-2.367l4.297-2.48 4.295-2.481c1.01-.6 2.051-.694 3.255 0z"/>
        <path fill="#FFF" d="M14.73 7.138l4.296 2.48 4.296 2.481c.923.516 1.501 1.26 1.61 2.417-.096.968-.565 1.763-1.61 2.367l-4.296 2.48-4.297 2.48c-1.009.602-2.05.695-3.255 0l-4.295-2.48-4.297-2.48c-.922-.516-1.502-1.26-1.61-2.417.096-.968.565-1.763 1.61-2.367L7.18 9.62l4.295-2.481c1.01-.6 2.051-.694 3.255 0z"/>
        <path stroke="#4E2E7F" stroke-linecap="round" stroke-linejoin="round" d="M14.73 7.138l4.296 2.48 4.296 2.481c.923.516 1.501 1.26 1.61 2.417-.096.968-.565 1.763-1.61 2.367l-4.296 2.48-4.297 2.48c-1.009.602-2.05.695-3.255 0l-4.295-2.48-4.297-2.48c-.922-.516-1.502-1.26-1.61-2.417.096-.968.565-1.763 1.61-2.367L7.18 9.62l4.295-2.481c1.01-.6 2.051-.694 3.255 0z"/>
        <g>
            <path fill="#FFF" d="M14.73 4.138l4.296 2.48L23.322 9.1c.923.516 1.501 1.26 1.61 2.417-.096.968-.565 1.763-1.61 2.367l-4.296 2.48-4.297 2.48c-1.009.602-2.05.695-3.255 0l-4.295-2.48-4.297-2.48c-.922-.516-1.502-1.26-1.61-2.417.096-.968.565-1.763 1.61-2.367L7.18 6.62l4.295-2.481c1.01-.6 2.051-.694 3.255 0z"/>
            <path stroke="#4E2E7F" stroke-linecap="round" stroke-linejoin="round" d="M14.73 4.138l4.296 2.48L23.322 9.1c.923.516 1.501 1.26 1.61 2.417-.096.968-.565 1.763-1.61 2.367l-4.296 2.48-4.297 2.48c-1.009.602-2.05.695-3.255 0l-4.295-2.48-4.297-2.48c-.922-.516-1.502-1.26-1.61-2.417.096-.968.565-1.763 1.61-2.367L7.18 6.62l4.295-2.481c1.01-.6 2.051-.694 3.255 0z"/>
        </g>
        <g>
            <path fill="#FFF" d="M14.73 1.138l4.296 2.48L23.322 6.1c.923.516 1.501 1.26 1.61 2.417-.096.968-.565 1.763-1.61 2.367l-4.296 2.48-4.297 2.48c-1.009.602-2.05.695-3.255 0l-4.295-2.48-4.297-2.48c-.922-.516-1.502-1.26-1.61-2.417.096-.968.565-1.763 1.61-2.367L7.18 3.62l4.295-2.481c1.01-.6 2.051-.694 3.255 0z"/>
            <path stroke="#4E2E7F" stroke-linecap="round" stroke-linejoin="round" d="M14.73 1.138l4.296 2.48L23.322 6.1c.923.516 1.501 1.26 1.61 2.417-.096.968-.565 1.763-1.61 2.367l-4.296 2.48-4.297 2.48c-1.009.602-2.05.695-3.255 0l-4.295-2.48-4.297-2.48c-.922-.516-1.502-1.26-1.61-2.417.096-.968.565-1.763 1.61-2.367L7.18 3.62l4.295-2.481c1.01-.6 2.051-.694 3.255 0z"/>
        </g>
    </g>
</svg>
